<?xml version="1.0" encoding="UTF-8" standalone="no"?>
<svg
   xmlns:dc="http://purl.org/dc/elements/1.1/"
   xmlns:cc="http://creativecommons.org/ns#"
   xmlns:rdf="http://www.w3.org/1999/02/22-rdf-syntax-ns#"
   xmlns:svg="http://www.w3.org/2000/svg"
   xmlns="http://www.w3.org/2000/svg"
   xmlns:sodipodi="http://sodipodi.sourceforge.net/DTD/sodipodi-0.dtd"
   xmlns:inkscape="http://www.inkscape.org/namespaces/inkscape"
   version="1.0"
   width="174.23mm"
   height="180.32001mm"
   id="svg42"
   sodipodi:docname="image7.svg"
   inkscape:version="0.92.3 (2405546, 2018-03-11)">
  <metadata
     id="metadata46">
    <rdf:RDF>
      <cc:Work
         rdf:about="">
        <dc:format>image/svg+xml</dc:format>
        <dc:type
           rdf:resource="http://purl.org/dc/dcmitype/StillImage" />
        <dc:title></dc:title>
      </cc:Work>
    </rdf:RDF>
  </metadata>
  <sodipodi:namedview
     pagecolor="#ffffff"
     bordercolor="#666666"
     borderopacity="1"
     objecttolerance="10"
     gridtolerance="10"
     guidetolerance="10"
     inkscape:pageopacity="0"
     inkscape:pageshadow="2"
     inkscape:window-width="683"
     inkscape:window-height="749"
     id="namedview44"
     showgrid="false"
     inkscape:zoom="0.34628252"
     inkscape:cx="329.25354"
     inkscape:cy="340.76222"
     inkscape:window-x="683"
     inkscape:window-y="0"
     inkscape:window-maximized="0"
     inkscape:current-layer="svg42" />
  <defs
     id="defs6">
    <clipPath
       clipPathUnits="userSpaceOnUse"
       id="clipEmfPath1">
      <path
         d="  M 0,0   L 0,0   L 0,683.27478   L 660.23762,683.27478   L 660.23762,0 "
         id="path2" />
    </clipPath>
    <pattern
       id="EMFhbasepattern"
       patternUnits="userSpaceOnUse"
       width="6"
       height="6"
       x="0"
       y="0" />
  </defs>
  <path
     style="fill:#ea6b65;fill-rule:nonzero;fill-opacity:1;stroke:none;"
     clip-path="url(#clipEmfPath1)"
     d="  M 23.101316,46.005035   L 23.101316,46.005035   L 115.70659,46.005035   C 128.40732,46.005035 138.80791,56.306162 138.80791,69.107563   L 138.80791,161.7177   C 138.80791,174.5191 128.40732,184.82023 115.70659,184.82023   L 23.101316,184.82023   C 10.300587,184.82023 0,174.5191 0,161.7177   L 0,69.107563   C 0,56.306162 10.300587,46.005035 23.101316,46.005035   L 23.101316,46.005035   z  M 23.101316,46.005035   L 23.101316,46.005035   z "
     id="path8" />
  <path
     style="fill:#d9d9d9;fill-rule:nonzero;fill-opacity:1;stroke:none;"
     clip-path="url(#clipEmfPath1)"
     d="  M 46.202632,115.41263   L 46.202632,115.41263   L 0,115.41263   L 0,161.7177   C 0,174.5191 10.300587,184.82023 23.101316,184.82023   L 115.70659,184.82023   C 128.40732,184.82023 138.80791,174.5191 138.80791,161.7177   L 138.80791,115.41263   L 46.202632,115.41263   z  M 46.202632,115.41263   L 46.202632,115.41263   z "
     id="path10" />
  <path
     style="fill:#d9d9d9;fill-rule:nonzero;fill-opacity:1;stroke:none;"
     clip-path="url(#clipEmfPath1)"
     d="  M 23.101316,242.72656   L 23.101316,242.72656   L 624.8356,242.72656   L 624.8356,682.47469   L 23.101316,682.47469   L 23.101316,242.72656   z "
     id="path12" />
  <path
     style="fill:#a8d6da;fill-rule:nonzero;fill-opacity:1;stroke:none;"
     clip-path="url(#clipEmfPath1)"
     d="  M 23.101316,242.72656   L 23.101316,242.72656   L 624.8356,242.72656   L 624.8356,335.23669   L 23.101316,335.23669   L 23.101316,242.72656   z "
     id="path14" />
  <path
     style="fill:#99d8aa;fill-rule:nonzero;fill-opacity:1;stroke:none;"
     clip-path="url(#clipEmfPath1)"
     d="  M 439.62505,508.85569   L 439.62505,508.85569   C 439.62505,572.76268 387.8221,624.56835 323.91845,624.56835   C 260.01481,624.56835 208.21186,572.76268 208.21186,508.85569   C 208.21186,444.9487 260.01481,393.14303 323.91845,393.14303   C 387.8221,393.14303 439.62505,444.9487 439.62505,508.85569   L 439.62505,508.85569   z  M 439.62505,508.85569   L 439.62505,508.85569   z "
     id="path16" />
  <path
     style="fill:#a8d6da;fill-rule:nonzero;fill-opacity:1;stroke:none;"
     clip-path="url(#clipEmfPath1)"
     d="  M 196.71121,92.210092   L 196.71121,92.210092   L 219.81252,92.210092   L 219.81252,115.41263   L 196.71121,115.41263   L 196.71121,92.210092   z "
     id="path18" />
  <path
     style="fill:#a8d6da;fill-rule:nonzero;fill-opacity:1;stroke:none;"
     clip-path="url(#clipEmfPath1)"
     d="  M 428.12439,92.210092   L 428.12439,92.210092   L 451.22571,92.210092   L 451.22571,115.41263   L 428.12439,115.41263   L 428.12439,92.210092   z "
     id="path20" />
  <path
     style="fill:#a8d6da;fill-rule:nonzero;fill-opacity:1;stroke:none;"
     clip-path="url(#clipEmfPath1)"
     d="  M 312.4178,161.7177   L 312.4178,161.7177   L 335.51912,161.7177   L 335.51912,184.82023   L 312.4178,184.82023   L 312.4178,161.7177   z "
     id="path22" />
  <path
     style="fill:#8aced8;fill-rule:nonzero;fill-opacity:1;stroke:none;"
     clip-path="url(#clipEmfPath1)"
     d="  M 57.803293,277.43036   L 57.803293,277.43036   L 80.904609,277.43036   L 80.904609,300.53289   L 57.803293,300.53289   L 57.803293,277.43036   z "
     id="path24" />
  <path
     style="fill:#8aced8;fill-rule:nonzero;fill-opacity:1;stroke:none;"
     clip-path="url(#clipEmfPath1)"
     d="  M 104.10593,277.43036   L 104.10593,277.43036   L 127.20725,277.43036   L 127.20725,300.53289   L 104.10593,300.53289   L 104.10593,277.43036   z "
     id="path26" />
  <path
     style="fill:#8aced8;fill-rule:nonzero;fill-opacity:1;stroke:none;"
     clip-path="url(#clipEmfPath1)"
     d="  M 150.40857,277.43036   L 150.40857,277.43036   L 173.50989,277.43036   L 173.50989,300.53289   L 150.40857,300.53289   L 150.40857,277.43036   z "
     id="path28" />
  <path
     style="fill:#a8d6da;fill-rule:nonzero;fill-opacity:1;stroke:none;"
     clip-path="url(#clipEmfPath1)"
     d="  M 636.33625,80.708833   L 636.33625,80.708833   C 636.33625,80.708833 618.03521,60.206589 600.03419,73.708067   C 593.63382,78.808625 589.93361,86.509468 590.13362,94.610354   L 590.13362,115.41263   L 509.12901,69.107563   L 516.0294,111.01215   C 518.82956,128.01401 530.83024,141.91553 547.03117,147.31612   L 555.33164,150.11643   C 547.83121,157.61725 538.13066,162.6178 527.63006,164.41799   L 509.12901,167.51833   C 509.12901,177.01937 516.82945,184.82023 526.42999,184.82023   L 578.53296,184.82023   C 610.43478,184.82023 636.33625,158.91739 636.33625,127.0139   L 636.33625,115.41263   L 659.53758,80.708833   L 636.33625,80.708833   z  M 636.33625,80.708833   L 636.33625,80.708833   z "
     id="path30" />
  <path
     style="fill:#6fbbc6;fill-rule:nonzero;fill-opacity:1;stroke:none;"
     clip-path="url(#clipEmfPath1)"
     d="  M 323.91845,127.0139   L 323.91845,127.0139   C 317.51809,127.0139 312.4178,121.81333 312.4178,115.41263   L 312.4178,34.403765   C 312.4178,15.201664 327.91868,-0.20002189 347.11978,-0.20002189   C 366.22086,-0.20002189 381.82175,15.201664 381.82175,34.403765   C 381.82175,40.804466 376.62146,46.005035 370.22109,46.005035   C 363.82073,46.005035 358.62043,40.804466 358.62043,34.403765   C 358.62043,28.003065 353.52014,22.802496 347.11978,22.802496   C 340.71941,22.802496 335.51912,28.003065 335.51912,34.403765   L 335.51912,115.41263   C 335.51912,121.81333 330.31882,127.0139 323.91845,127.0139   L 323.91845,127.0139   z  M 323.91845,127.0139   L 323.91845,127.0139   z "
     id="path32" />
  <path
     style="fill:#6fbbc6;fill-rule:nonzero;fill-opacity:1;stroke:none;"
     clip-path="url(#clipEmfPath1)"
     d="  M 347.11978,80.708833   L 347.11978,80.708833   L 300.81714,80.708833   C 294.41677,80.708833 289.21648,75.508264 289.21648,69.107563   C 289.21648,62.706863 294.41677,57.506294 300.81714,57.506294   L 347.11978,57.506294   C 353.52014,57.506294 358.62043,62.706863 358.62043,69.107563   C 358.62043,75.508264 353.52014,80.708833 347.11978,80.708833   L 347.11978,80.708833   z  M 347.11978,80.708833   L 347.11978,80.708833   z "
     id="path34" />
  <path
     style="fill:#8aced8;fill-rule:nonzero;fill-opacity:1;stroke:none;"
     clip-path="url(#clipEmfPath1)"
     d="  M 69.403954,150.11643   L 69.403954,150.11643   C 50.20286,150.11643 34.701977,134.61473 34.701977,115.41263   C 34.701977,96.210529 50.20286,80.708833 69.403954,80.708833   C 88.505042,80.708833 104.10593,96.210529 104.10593,115.41263   C 104.10593,134.61473 88.505042,150.11643 69.403954,150.11643   L 69.403954,150.11643   z  M 69.403954,103.81136   L 69.403954,103.81136   C 63.00359,103.81136 57.803293,109.01193 57.803293,115.41263   C 57.803293,121.81333 63.00359,127.0139 69.403954,127.0139   C 75.804319,127.0139 80.904609,121.81333 80.904609,115.41263   C 80.904609,109.01193 75.804319,103.81136 69.403954,103.81136   L 69.403954,103.81136   z  M 69.403954,103.81136   L 69.403954,103.81136   z "
     id="path36" />
  <path
     style="fill:#aedee2;fill-rule:nonzero;fill-opacity:1;stroke:none;"
     clip-path="url(#clipEmfPath1)"
     d="  M 92.50527,115.41263   L 92.50527,115.41263   C 92.50527,128.21403 82.204683,138.51516 69.403954,138.51516   C 56.603225,138.51516 46.202632,128.21403 46.202632,115.41263   C 46.202632,102.61123 56.603225,92.210092 69.403954,92.210092   C 82.204683,92.210092 92.50527,102.61123 92.50527,115.41263   L 92.50527,115.41263   z  M 92.50527,115.41263   L 92.50527,115.41263   z "
     id="path38" />
  <path
     style="fill:#85bc94;fill-rule:nonzero;fill-opacity:1;stroke:none;"
     clip-path="url(#clipEmfPath1)"
     d="  M 365.52082,388.64253   L 365.52082,388.64253   C 356.92033,385.64221 348.11983,383.64199 339.11932,382.54187   C 329.01875,381.24172 318.81816,381.24172 308.81759,382.54187   C 299.81708,383.64199 290.91657,385.64221 282.41609,388.64253   C 255.71457,397.94355 232.91327,415.7455 217.41239,439.44809   L 217.31238,439.44809   C 212.61211,446.74889 208.61189,454.44974 205.51171,462.55062   C 203.51159,467.65118 201.8115,472.85175 200.51142,478.05232   C 200.41142,478.7524 200.21141,479.35246 200.0114,479.95253   C 199.51137,482.25278 199.11134,484.45302 198.71132,486.75327   C 198.4113,488.25343 198.21129,489.7536 198.01128,491.25376   C 197.71126,493.25398 197.41125,495.2542 197.21124,497.25442   C 196.91122,501.05484 196.6112,504.95526 196.6112,508.85569   C 196.6112,512.75612 196.91122,516.55653 197.21124,520.45696   C 197.41125,522.45718 197.71126,524.4574 198.01128,526.45762   C 198.21129,527.95778 198.4113,529.45794 198.71132,530.95811   C 199.11134,533.25836 199.51137,535.4586 200.0114,537.75885   C 200.21141,538.35892 200.41142,538.95898 200.51142,539.55905   C 201.8115,544.85963 203.51159,550.0602 205.51171,555.16076   C 208.61189,563.26164 212.61211,570.96249 217.41239,578.26329   L 217.41239,578.26329   C 232.91327,601.86587 255.71457,619.76783 282.41609,629.06885   C 291.01658,631.96916 299.81708,634.06939 308.81759,635.16951   C 318.91817,636.46966 329.01875,636.46966 339.11932,635.16951   C 348.11983,634.06939 357.02034,631.96916 365.52082,629.06885   C 392.22235,619.76783 415.02365,601.86587 430.52453,578.26329   L 430.52453,578.26329   C 435.3248,570.96249 439.22502,563.26164 442.42521,555.16076   C 444.42532,550.0602 446.02541,544.85963 447.32549,539.65906   C 447.5255,538.95898 447.72551,538.35892 447.82551,537.75885   C 448.32554,535.4586 448.82557,533.25836 449.22559,530.95811   C 449.52561,529.45794 449.72562,527.95778 449.92563,526.45762   C 450.22565,524.4574 450.52567,522.45718 450.62567,520.45696   C 451.0257,516.55653 451.22571,512.75612 451.22571,508.85569   C 451.22571,504.95526 451.0257,501.05484 450.62567,497.25442   C 450.52567,495.2542 450.22565,493.25398 449.92563,491.25376   C 449.72562,489.7536 449.52561,488.25343 449.22559,486.75327   C 448.82557,484.45302 448.32554,482.25278 447.82551,479.95253   C 447.72551,479.35246 447.5255,478.65238 447.32549,478.05232   C 446.02541,472.75174 444.32531,467.65118 442.42521,462.55062   C 439.22502,454.44974 435.2248,446.74889 430.52453,439.44809   L 430.42452,439.44809   C 415.02365,415.7455 392.12234,397.94355 365.52082,388.64253   L 365.52082,388.64253   z  M 230.81315,462.55062   L 230.81315,462.55062   L 262.81497,462.55062   C 261.21488,474.05188 260.21483,485.65315 259.8148,497.25442   L 220.41256,497.25442   C 221.81264,485.1531 225.31284,473.45182 230.81315,462.55062   L 230.81315,462.55062   z  M 230.81315,555.16076   L 230.81315,555.16076   C 225.31284,544.25956 221.81264,532.45827 220.51256,520.45696   L 259.8148,520.45696   C 260.21483,532.05823 261.21488,543.6595 262.91498,555.16076   L 230.81315,555.16076   z  M 246.51404,578.26329   L 246.51404,578.26329   L 267.21522,578.26329   C 268.91532,585.46407 270.81543,592.46484 272.91555,599.56562   C 263.01498,593.965 254.11448,586.76422 246.51404,578.26329   L 246.51404,578.26329   z  M 267.21522,439.44809   L 267.21522,439.44809   L 246.51404,439.44809   C 254.11448,430.94716 263.01498,423.74638 272.91555,418.14576   C 270.81543,425.14653 268.81532,432.24731 267.21522,439.44809   L 267.21522,439.44809   z  M 312.4178,612.26701   L 312.4178,612.26701   C 308.41757,611.86696 304.41734,611.16689 300.51712,610.26679   L 297.21693,600.3657   C 294.8168,593.06491 292.61667,585.6641 290.81657,578.26329   L 312.4178,578.26329   L 312.4178,612.26701   z  M 312.4178,555.16076   L 312.4178,555.16076   L 286.1163,555.16076   C 284.4162,543.6595 283.31614,532.05823 282.91612,520.45696   L 312.4178,520.45696   L 312.4178,555.16076   z  M 312.4178,497.25442   L 312.4178,497.25442   L 282.91612,497.25442   C 283.31614,485.65315 284.4162,474.05188 286.1163,462.55062   L 312.4178,462.55062   L 312.4178,497.25442   z  M 312.4178,439.44809   L 312.4178,439.44809   L 290.81657,439.44809   C 292.71668,431.94727 294.8168,424.64647 297.21693,417.34567   L 300.51712,407.44459   C 304.41734,406.54449 308.41757,405.84442 312.4178,405.34436   L 312.4178,439.44809   z  M 335.51912,405.34436   L 335.51912,405.34436   C 339.51934,405.84442 343.51957,406.54449 347.41979,407.44459   L 350.71998,417.34567   C 353.12012,424.64647 355.22024,431.94727 357.02034,439.44809   L 335.51912,439.44809   L 335.51912,405.34436   z  M 350.71998,600.3657   L 350.71998,600.3657   L 347.41979,610.26679   C 343.51957,611.16689 339.51934,611.86696 335.51912,612.26701   L 335.51912,578.26329   L 357.02034,578.26329   C 355.22024,585.6641 353.12012,593.06491 350.71998,600.3657   L 350.71998,600.3657   z  M 361.72061,555.16076   L 361.72061,555.16076   L 335.51912,555.16076   L 335.51912,520.45696   L 365.0208,520.45696   C 364.62077,532.05823 363.52071,543.6595 361.72061,555.16076   L 361.72061,555.16076   z  M 335.51912,497.25442   L 335.51912,497.25442   L 335.51912,462.55062   L 361.72061,462.55062   C 363.52071,474.05188 364.62077,485.65315 365.0208,497.25442   L 335.51912,497.25442   z  M 401.32286,439.44809   L 401.32286,439.44809   L 380.62169,439.44809   C 379.02159,432.24731 377.12149,425.14653 374.92136,418.14576   C 384.82192,423.74638 393.72243,430.94716 401.32286,439.44809   L 401.32286,439.44809   z  M 375.02137,599.56562   L 375.02137,599.56562   C 377.12149,592.46484 379.02159,585.46407 380.62169,578.26329   L 401.32286,578.26329   C 393.72243,586.76422 384.82192,593.965 375.02137,599.56562   L 375.02137,599.56562   z  M 417.12376,555.16076   L 417.12376,555.16076   L 385.02194,555.16076   C 386.72203,543.6595 387.72209,532.05823 388.12211,520.45696   L 427.42435,520.45696   C 426.02427,532.55828 422.52407,544.25956 417.12376,555.16076   L 417.12376,555.16076   z  M 388.12211,497.25442   L 388.12211,497.25442   C 387.8221,485.65315 386.72203,474.05188 385.12194,462.55062   L 417.12376,462.55062   C 422.52407,473.45182 426.02427,485.1531 427.42435,497.25442   L 388.12211,497.25442   z  M 388.12211,497.25442   L 388.12211,497.25442   z "
     id="path40" />
</svg>
