<?xml version="1.0" encoding="UTF-8" standalone="no"?>
<svg
   xmlns:dc="http://purl.org/dc/elements/1.1/"
   xmlns:cc="http://creativecommons.org/ns#"
   xmlns:rdf="http://www.w3.org/1999/02/22-rdf-syntax-ns#"
   xmlns:svg="http://www.w3.org/2000/svg"
   xmlns="http://www.w3.org/2000/svg"
   xmlns:sodipodi="http://sodipodi.sourceforge.net/DTD/sodipodi-0.dtd"
   xmlns:inkscape="http://www.inkscape.org/namespaces/inkscape"
   version="1.0"
   width="180.58mm"
   height="180.32001mm"
   id="svg33"
   sodipodi:docname="image5.svg"
   inkscape:version="0.92.3 (2405546, 2018-03-11)">
  <metadata
     id="metadata37">
    <rdf:RDF>
      <cc:Work
         rdf:about="">
        <dc:format>image/svg+xml</dc:format>
        <dc:type
           rdf:resource="http://purl.org/dc/dcmitype/StillImage" />
        <dc:title></dc:title>
      </cc:Work>
    </rdf:RDF>
  </metadata>
  <sodipodi:namedview
     pagecolor="#ffffff"
     bordercolor="#666666"
     borderopacity="1"
     objecttolerance="10"
     gridtolerance="10"
     guidetolerance="10"
     inkscape:pageopacity="0"
     inkscape:pageshadow="2"
     inkscape:window-width="683"
     inkscape:window-height="749"
     id="namedview35"
     showgrid="false"
     inkscape:zoom="0.34628252"
     inkscape:cx="341.25355"
     inkscape:cy="340.76222"
     inkscape:window-x="683"
     inkscape:window-y="0"
     inkscape:window-maximized="0"
     inkscape:current-layer="svg33" />
  <defs
     id="defs9">
    <clipPath
       clipPathUnits="userSpaceOnUse"
       id="clipEmfPath1">
      <path
         d="  M 0,0   L 0,0   L 0,683.27478   L 684.23461,683.27478   L 684.23461,0 "
         id="path2" />
    </clipPath>
    <clipPath
       clipPathUnits="userSpaceOnUse"
       id="clipEmfPath2">
      <path
         d="  M 0,0   L 0,0   L 0,683.27478   L 683.43457,683.27478   L 683.43457,0 "
         id="path5" />
    </clipPath>
    <pattern
       id="EMFhbasepattern"
       patternUnits="userSpaceOnUse"
       width="6"
       height="6"
       x="0"
       y="0" />
  </defs>
  <path
     style="fill:#59b637;fill-rule:nonzero;fill-opacity:1;stroke:none;"
     clip-path="url(#clipEmfPath1)"
     d="  M 564.82857,443.1485   L 564.82857,443.1485   C 564.82857,438.04794 563.4285,432.94738 560.72836,428.5469   L 534.42703,386.34228   C 531.12687,379.84157 529.52679,372.64078 529.52679,365.33998   L 529.52679,235.22574   C 529.52679,150.71649 461.02332,82.208997 376.51905,82.208997   L 305.91547,82.208997   C 221.4112,82.208997 152.90773,150.71649 152.90773,235.22574   L 152.90773,365.33998   C 152.90773,372.64078 151.30765,379.84157 148.00749,386.34228   L 121.70616,428.5469   C 119.00602,432.94738 117.60595,438.04794 117.60595,443.1485   C 117.70595,458.25015 129.90657,470.5515 145.00734,470.5515   L 537.42719,470.5515   C 552.52795,470.5515 564.72857,458.25015 564.82857,443.1485   z "
     id="path11" />
  <path
     style="fill:#59b637;fill-rule:nonzero;fill-opacity:1;stroke:none;"
     clip-path="url(#clipEmfPath1)"
     d="  M 376.51905,82.208997   L 376.51905,82.208997   L 435.32202,-0.10001095   L 247.1125,-0.10001095   L 305.91547,82.208997   L 305.91547,105.81158   L 376.51905,105.81158   L 376.51905,82.208997   z "
     id="path13" />
  <path
     style="fill:#45983b;fill-rule:nonzero;fill-opacity:1;stroke:none;"
     clip-path="url(#clipEmfPath1)"
     d="  M 560.72836,428.5469   L 560.72836,428.5469   L 534.42703,386.34228   C 531.12687,379.84157 529.52679,372.64078 529.52679,365.33998   L 529.52679,235.22574   C 529.62679,201.12201 518.32622,168.01839 497.42516,141.11544   C 465.92357,314.23439 355.31797,413.9453 251.41272,470.5515   L 537.42719,470.5515   C 552.62795,470.65151 564.92858,458.35016 565.02858,443.1485   C 565.02858,438.04794 563.62851,432.94738 560.92837,428.5469   L 560.72836,428.5469   z "
     id="path15" />
  <path
     style="fill:#fefefe;fill-rule:nonzero;fill-opacity:1;stroke:none;"
     clip-path="url(#clipEmfPath1)"
     d="  M 329.41666,271.22968   L 329.41666,271.22968   L 316.316,266.32915   C 310.01568,263.82887 305.91547,257.92823 305.91547,251.22749   C 305.91547,242.42653 313.11584,235.22574 321.91628,235.22574   L 329.41666,235.22574   L 329.41666,271.22968   L 329.41666,271.22968   z  M 366.11852,310.03393   L 366.11852,310.03393   C 372.41884,312.43419 376.51905,318.43485 376.51905,325.13558   C 376.51905,333.93655 369.31868,341.13733 360.51824,341.13733   L 353.01786,341.13733   L 353.01786,305.13339   L 366.11852,310.03393   L 366.11852,310.03393   z  M 400.02023,258.72832   L 400.02023,258.72832   L 400.02023,251.22749   C 400.02023,229.42511 382.31934,211.72317 360.51824,211.72317   L 353.01786,211.72317   L 353.01786,188.12059   L 329.41666,188.12059   L 329.41666,211.72317   L 321.91628,211.72317   C 300.11518,211.62316 282.31428,229.22509 282.21428,251.12748   C 282.21428,267.62929 292.5148,282.53092 308.01558,288.33156   L 329.41666,296.33243   L 329.41666,341.13733   L 321.91628,341.13733   C 313.11584,341.13733 305.91547,333.93655 305.91547,325.13558   L 305.91547,317.63476   L 282.41429,317.63476   L 282.41429,325.13558   C 282.41429,346.93797 300.11518,364.63991 321.91628,364.63991   L 360.51824,364.63991   C 382.31934,364.73992 400.12024,347.13799 400.22024,325.23559   C 400.22024,308.63378 389.91972,293.83216 374.41894,288.03152   L 353.01786,280.03065   L 353.01786,235.22574   L 360.51824,235.22574   C 369.31868,235.22574 376.51905,242.42653 376.51905,251.22749   L 376.51905,258.72832   L 400.02023,258.72832   z "
     id="path17" />
  <path
     style="fill:#f79b24;fill-rule:nonzero;fill-opacity:1;stroke:none;"
     clip-path="url(#clipEmfPath2)"
     d="  M 576.52916,117.51286   L 576.52916,117.51286   L 576.52916,117.51286   C 572.52896,93.410223 553.628,74.508154 529.52679,70.507716   C 553.628,66.507279 572.52896,47.505199 576.52916,23.402561   C 580.52937,47.505199 599.53033,66.507279 623.63155,70.507716   C 599.53033,74.508154 580.52937,93.410223 576.52916,117.51286   z "
     id="path19" />
  <path
     style="fill:#f79b24;fill-rule:nonzero;fill-opacity:1;stroke:none;"
     clip-path="url(#clipEmfPath2)"
     d="  M 47.002378,352.93863   L 47.002378,352.93863   L 47.002378,352.93863   C 43.002175,328.73598 24.101219,309.83391 0,305.83347   C 24.101219,301.83303 43.002175,282.93096 47.002378,258.72832   C 51.00258,282.93096 69.903536,301.83303 94.10476,305.83347   C 69.903536,309.83391 51.00258,328.73598 47.002378,352.93863   z "
     id="path21" />
  <path
     style="fill:#f8ad90;fill-rule:nonzero;fill-opacity:1;stroke:none;"
     clip-path="url(#clipEmfPath2)"
     d="  M 677.43427,410.44492   L 677.43427,410.44492   C 667.73378,394.14314 647.03273,388.44251 630.33188,397.34349   L 463.32344,468.7513   C 460.42329,469.95143 457.22313,470.65151 454.02297,470.5515   L 247.1125,470.5515   C 234.11184,470.5515 223.51131,460.05035 223.51131,447.04893   C 223.51131,434.0475 234.11184,423.54635 247.1125,423.54635   L 341.21726,423.54635   C 380.21923,423.54635 411.82083,391.94289 411.82083,352.93863   L 216.01093,352.93863   C 183.50928,352.93863 152.90773,367.74025 132.60671,393.04301   L 58.802974,482.35279   L 141.90718,634.66946   L 461.62335,557.76104   C 475.42405,554.56069 488.82473,549.76017 501.42536,543.15944   L 666.1337,458.85022   C 682.53453,448.54909 687.53478,426.94673 677.43427,410.44492   z "
     id="path23" />
  <path
     style="fill:#f79e7b;fill-rule:nonzero;fill-opacity:1;stroke:none;"
     clip-path="url(#clipEmfPath2)"
     d="  M 115.40584,586.16415   L 115.40584,586.16415   L 141.90718,634.66946   L 461.62335,557.76104   C 475.42405,554.56069 488.82473,549.76017 501.42536,543.15944   L 590.42987,497.45444   C 442.42238,542.7594 245.91244,570.96249 115.40584,586.16415   z "
     id="path25" />
  <path
     style="fill:#2894c9;fill-rule:nonzero;fill-opacity:1;stroke:none;"
     clip-path="url(#clipEmfPath2)"
     d="  M 0,470.5515   L 0,470.5515   L 0,682.47469   L 152.90773,682.47469   L 188.20952,647.07082   L 47.002378,435.24763   L 0,470.5515   z "
     id="path27" />
  <path
     style="fill:#2888c1;fill-rule:nonzero;fill-opacity:1;stroke:none;"
     clip-path="url(#clipEmfPath2)"
     d="  M 0,682.47469   L 0,682.47469   L 152.90773,682.47469   L 188.20952,647.07082   L 162.30821,608.26657   C 110.00556,629.86893 55.602813,646.07071 0,656.67187   L 0,682.47469   z "
     id="path29" />
  <path
     style="fill:#d0cfcc;fill-rule:nonzero;fill-opacity:1;stroke:none;"
     clip-path="url(#clipEmfPath1)"
     d="  M 105.90536,600.06567   L 105.90536,600.06567   C 118.90601,600.06567 129.40655,610.66683 129.40655,623.66825   C 129.40655,636.56967 118.90601,647.17083 105.90536,647.17083   C 92.904699,647.17083 82.304163,636.56967 82.304163,623.66825   C 82.304163,610.66683 92.904699,600.06567 105.90536,600.06567   z "
     id="path31" />
</svg>
