<?xml version="1.0" encoding="UTF-8" standalone="no"?>
<svg
   xmlns:dc="http://purl.org/dc/elements/1.1/"
   xmlns:cc="http://creativecommons.org/ns#"
   xmlns:rdf="http://www.w3.org/1999/02/22-rdf-syntax-ns#"
   xmlns:svg="http://www.w3.org/2000/svg"
   xmlns="http://www.w3.org/2000/svg"
   xmlns:sodipodi="http://sodipodi.sourceforge.net/DTD/sodipodi-0.dtd"
   xmlns:inkscape="http://www.inkscape.org/namespaces/inkscape"
   version="1.0"
   width="175.24001mm"
   height="180.07001mm"
   id="svg37"
   sodipodi:docname="image10.svg"
   inkscape:version="0.92.3 (2405546, 2018-03-11)">
  <metadata
     id="metadata41">
    <rdf:RDF>
      <cc:Work
         rdf:about="">
        <dc:format>image/svg+xml</dc:format>
        <dc:type
           rdf:resource="http://purl.org/dc/dcmitype/StillImage" />
        <dc:title></dc:title>
      </cc:Work>
    </rdf:RDF>
  </metadata>
  <sodipodi:namedview
     pagecolor="#ffffff"
     bordercolor="#666666"
     borderopacity="1"
     objecttolerance="10"
     gridtolerance="10"
     guidetolerance="10"
     inkscape:pageopacity="0"
     inkscape:pageshadow="2"
     inkscape:window-width="683"
     inkscape:window-height="749"
     id="namedview39"
     showgrid="false"
     inkscape:zoom="0.34676328"
     inkscape:cx="331.16222"
     inkscape:cy="340.28978"
     inkscape:window-x="683"
     inkscape:window-y="0"
     inkscape:window-maximized="0"
     inkscape:current-layer="svg37" />
  <defs
     id="defs9">
    <clipPath
       clipPathUnits="userSpaceOnUse"
       id="clipEmfPath1">
      <path
         d="  M 0,0   L 0,0   L 0,681.355   L 664.07718,681.355   L 664.07718,0 "
         id="path2" />
    </clipPath>
    <clipPath
       clipPathUnits="userSpaceOnUse"
       id="clipEmfPath2">
      <path
         d="  M 0,0   L 0,0   L 0,681.25499   L 664.07718,681.25499   L 664.07718,0 "
         id="path5" />
    </clipPath>
    <pattern
       id="EMFhbasepattern"
       patternUnits="userSpaceOnUse"
       width="6"
       height="6"
       x="0"
       y="0" />
  </defs>
  <path
     style="fill:#ff5d5d;fill-rule:nonzero;fill-opacity:1;stroke:none;"
     clip-path="url(#clipEmfPath1)"
     d="  M 175.02034,340.62749   L 175.02034,340.62749   L 350.64075,115.90936   C 310.73612,117.60949 316.73681,113.80919 280.53261,130.81056   C 222.72589,158.01275 159.71856,172.01388 95.811136,171.81387   L 100.41167,205.31657   C 107.71252,258.72088 134.71566,306.72476 175.02034,340.62749   L 175.02034,340.62749   z  M 175.02034,340.62749   L 175.02034,340.62749   z "
     id="path11" />
  <path
     style="fill:#72d8ff;fill-rule:nonzero;fill-opacity:1;stroke:none;"
     clip-path="url(#clipEmfPath1)"
     d="  M 315.23664,208.01679   L 315.23664,208.01679   L 295.23431,228.0184   C 276.03208,247.21995 275.73205,277.42239 292.43399,297.02397   L 330.43841,323.72613   C 331.63855,325.02623 332.73867,326.42635 333.53877,328.02648   L 359.6418,346.42796   C 366.94265,353.62854 366.94265,365.4295 359.6418,372.63008   L 290.53377,441.73565   C 281.43271,450.9364 278.7324,464.13746 282.53284,475.63839   C 283.23292,475.7384 284.03301,475.7384 284.73309,475.7384   C 293.23408,475.7384 301.73507,472.53814 308.13581,466.03762   L 380.74425,393.53176   C 413.8481,360.42909 413.8481,306.52474 380.74425,273.42207   L 315.23664,208.01679   z  M 315.23664,208.01679   L 315.23664,208.01679   z "
     id="path13" />
  <path
     style="fill:#72d8ff;fill-rule:nonzero;fill-opacity:1;stroke:none;"
     clip-path="url(#clipEmfPath1)"
     d="  M 271.13151,267.32158   L 271.13151,267.32158   L 190.42213,392.03164   L 87.110125,471.93809   C 74.808695,480.83881 70.408183,496.54008 75.408764,510.14118   C 77.308985,510.54121 79.309218,510.64122 81.30945,510.64122   C 88.010229,510.64122 94.81102,508.64105 100.71171,504.34071   L 209.42434,420.53394   C 212.92475,417.93373 215.9251,414.63347 218.22536,410.93317   L 293.33409,299.72419   L 271.13151,267.32158   z  M 271.13151,267.32158   L 271.13151,267.32158   z "
     id="path15" />
  <path
     style="fill:#72d8ff;fill-rule:nonzero;fill-opacity:1;stroke:none;"
     clip-path="url(#clipEmfPath1)"
     d="  M 401.54667,123.70999   L 401.54667,123.70999   L 317.23687,208.1168   L 377.34386,268.22165   L 460.75355,184.81492   C 480.65586,164.91331 484.05626,134.81088 470.95474,111.30898   C 448.2521,100.80814 420.34886,104.90847 401.54667,123.70999   L 401.54667,123.70999   z  M 401.54667,123.70999   L 401.54667,123.70999   z "
     id="path17" />
  <path
     style="fill:#ffcdab;fill-rule:nonzero;fill-opacity:1;stroke:none;"
     clip-path="url(#clipEmfPath1)"
     d="  M 534.16208,24.301962   L 534.16208,24.301962   C 516.46003,6.6005328 487.8567,6.6005328 470.15464,24.301962   L 460.65354,33.802728   C 443.05149,51.504157 443.05149,80.106466 460.65354,97.807895   C 478.3556,115.40932 506.95892,115.40932 524.66098,97.807895   L 534.16208,88.307128   C 551.86414,70.605699 551.86414,42.00339 534.16208,24.301962   L 534.16208,24.301962   z  M 534.16208,24.301962   L 534.16208,24.301962   z "
     id="path19" />
  <path
     style="fill:#72d8ff;fill-rule:nonzero;fill-opacity:1;stroke:none;"
     clip-path="url(#clipEmfPath1)"
     d="  M 538.76262,158.31278   L 538.76262,158.31278   C 505.85879,171.0138 468.9545,172.71394 433.55039,161.81306   C 418.54865,157.11268 410.14767,141.2114 414.84822,126.21019   C 419.44875,111.20898 435.3506,102.8083 450.35234,107.50868   C 490.65703,119.90968 534.06207,107.00864 561.06521,74.606022   L 599.46967,28.502301   C 609.47084,16.501332 627.37292,14.801195 639.47432,24.90201   C 651.47572,34.902817 653.17592,52.804262 643.07474,64.905239   L 604.77029,111.00896   C 586.66819,132.6107 563.86554,148.712 538.76262,158.31278   L 538.76262,158.31278   z  M 538.76262,158.31278   L 538.76262,158.31278   z "
     id="path21" />
  <path
     style="fill:#ff5d5d;fill-rule:nonzero;fill-opacity:1;stroke:none;"
     clip-path="url(#clipEmfPath2)"
     d="  M 555.06451,353.82856   L 555.06451,353.82856   L 573.46665,372.33005   L 280.03255,665.75374   L 339.03941,665.75374   L 603.67016,401.13238   L 622.17231,419.63387   L 641.8746,333.92695   L 555.06451,353.82856   z  M 555.06451,353.82856   L 555.06451,353.82856   z "
     id="path23" />
  <path
     style="fill:#000000;fill-rule:nonzero;fill-opacity:1;stroke:none;"
     clip-path="url(#clipEmfPath2)"
     d="  M 53.806254,440.03552   L 53.806254,440.03552   C 33.203859,455.13674 28.603324,484.03907 43.605068,504.74074   C 52.306079,516.84172 66.407718,523.94229 81.30945,523.94229   C 91.110589,523.94229 100.51168,520.94205 108.51261,515.14158   C 108.61262,515.04157 108.71264,515.04157 108.81265,514.94156   L 217.32526,431.1348   C 222.22583,427.63452 226.32631,423.23416 229.42667,418.03374   L 297.63459,317.02559   L 321.53737,333.82694   C 322.33746,334.92703 322.53749,336.22714 322.53749,336.92719   C 322.53749,337.72726 322.33746,339.32739 320.9373,340.62749   L 251.92928,409.73307   C 243.12826,418.53378 238.22769,430.13472 238.22769,442.63573   C 238.22769,455.03673 243.12826,466.63766 251.92928,475.43837   C 260.63029,484.23909 272.33165,489.03947 284.73309,489.03947   C 297.13453,489.03947 308.83589,484.23909 317.53691,475.43837   L 390.14535,402.93252   C 408.6475,384.43103 418.84868,359.72904 418.84868,333.52692   C 418.84868,309.62499 410.4477,287.12317 395.04591,269.32174   L 470.15464,194.21568   C 473.75506,190.51538 477.05545,186.51505 479.85577,182.21471   C 480.35583,182.21471 480.75588,182.21471 481.25593,182.21471   C 502.4584,182.21471 523.66086,178.4144 543.56318,170.71378   C 571.16638,160.11292 595.86926,142.41149 614.97148,119.50965   L 653.37594,73.405925   C 660.47676,64.805231 663.87716,54.004359 662.87704,42.903463   C 661.77692,31.802567 656.57631,21.80176 647.97531,14.701187   C 630.27325,0 603.9702,2.4001937 589.16848,20.001614   L 560.66516,54.304383   C 560.16511,40.003229 554.46444,25.802083 543.56318,14.901203   C 520.76053,-7.8006296 483.5562,-7.8006296 460.75355,14.901203   L 451.25245,24.40197   C 440.25117,35.502866 434.15046,50.204052 434.15046,65.805311   C 434.15046,66.705384 434.15046,67.505449 434.15046,68.405521   C 429.04987,67.205424 423.74925,66.605376 418.54865,66.505368   C 418.04859,66.40536 417.64854,66.40536 417.14848,66.40536   L 353.6411,66.40536   C 307.83578,66.40536 261.73042,76.706191 220.32561,96.207765   C 165.01918,122.20986 103.41202,135.91097 42.304917,135.91097   C 42.004882,135.91097 41.604836,135.91097 41.304801,135.91097   C 37.404347,135.91097 33.803929,137.5111 31.303638,140.41133   C 28.703336,143.31157 27.603208,147.21188 28.103266,151.01219   L 32.703801,184.51489   C 43.004998,259.92098 89.510403,324.42619 157.4183,358.0289   L 155.11803,361.62919   L 53.806254,440.03552   z  M 207.22408,403.43256   L 207.22408,403.43256   C 207.12407,403.63258 207.02406,403.8326 206.92405,403.9326   C 205.52389,406.23279 203.72368,408.13294 201.52342,409.73307   C 201.42341,409.83308 201.3234,409.93309 201.22339,409.93309   L 92.710775,493.73985   C 89.410392,496.14005 85.409927,497.34014 81.30945,497.34014   C 74.908706,497.34014 68.908009,494.3399 65.207579,489.13948   C 58.806835,480.33877 60.707056,467.83776 69.60809,461.43724   C 69.708102,461.33724 69.808114,461.33724 69.908125,461.23723   L 173.22013,381.23077   C 174.42027,380.3307 175.42039,379.23061 176.22048,377.9305   L 245.2285,271.42191   C 249.92905,280.32263 256.62983,288.02325 265.0308,294.02373   L 275.93207,301.62435   L 207.22408,403.43256   z  M 371.34316,384.131   L 371.34316,384.131   L 298.73472,456.63686   C 295.03429,460.33716 290.03371,462.43733 284.73309,462.43733   C 279.43248,462.43733 274.4319,460.33716 270.73147,456.63686   C 266.93102,452.83655 264.93079,447.83615 264.93079,442.53572   C 264.93079,437.3353 266.93102,432.3349 270.73147,428.53459   L 339.8395,359.42901   C 345.8402,353.42853 349.14058,345.42788 349.14058,336.92719   C 349.14058,328.42651 345.8402,320.32585 339.8395,314.32537   C 339.23943,313.82533 338.63936,313.32529 338.03929,312.92526   L 280.33258,272.22197   C 271.23152,265.82146 265.43085,255.82065 264.53075,244.71975   C 263.53063,233.61886 267.53109,222.71798 275.43201,214.81734   L 289.23362,200.91622   L 366.94265,278.62249   C 367.24268,278.92251 367.54272,279.22254 367.84275,279.42255   L 371.34316,282.82283   C 384.74472,296.32392 392.24559,314.32537 392.24559,333.42691   C 392.24559,352.62846 384.74472,370.62992 371.34316,384.131   L 371.34316,384.131   z  M 376.34374,250.3202   L 376.34374,250.3202   L 317.53691,191.51546   C 317.23687,191.21543 316.93684,190.91541 316.6368,190.61539   L 308.13581,182.1147   L 383.04452,107.20865   C 395.64598,94.507628 413.64808,90.407297 429.74995,94.707644   C 427.24966,95.507709 424.84938,96.50779 422.4491,97.707886   C 412.64796,102.90831 405.44712,111.60901 402.14674,122.30987   C 398.84636,132.91073 399.84647,144.21164 405.04708,154.11244   C 410.24768,163.91323 419.0487,171.21382 429.64994,174.51409   C 435.65063,176.31423 441.65133,177.81435 447.75204,179.01445   L 376.34374,250.3202   z  M 571.36641,83.106708   L 571.36641,83.106708   L 609.67086,37.102995   C 614.97148,30.60247 624.57259,29.802405 630.97334,35.102833   C 634.0737,37.703043 635.97392,41.303334 636.27395,45.303657   C 636.674,49.403988 635.47386,53.304302 632.87356,56.404553   L 594.5691,102.40827   C 578.36722,121.90984 557.46479,136.91105 533.96206,145.91178   C 503.3585,157.71273 469.05452,158.81282 437.55085,149.01203   C 433.6504,147.81193 430.55004,145.21172 428.64982,141.71144   C 426.7496,138.11115 426.34955,134.01082 427.54969,130.1105   C 428.74983,126.3102 431.35013,123.10994 434.95055,121.20978   C 437.15081,120.10969 439.55109,119.50965 441.95137,119.50965   C 443.45154,119.50965 444.95172,119.70966 446.45189,120.2097   C 453.65273,122.40988 460.95358,123.91 468.15441,124.71007   C 469.35455,125.01009 470.55469,125.1101 471.75483,125.1101   C 482.05603,125.91016 492.35722,125.41012 502.4584,123.50997   C 503.65854,123.30995 504.95869,123.00993 506.15883,122.80991   C 506.25884,122.7099 506.35885,122.7099 506.35885,122.7099   C 506.65889,122.6099 506.95892,122.6099 507.15895,122.50989   C 531.7618,116.90944 554.46444,103.40835 571.36641,83.106708   L 571.36641,83.106708   z  M 460.75355,65.805311   L 460.75355,65.805311   C 460.75355,57.304625 464.05394,49.203971 470.05463,43.203487   L 479.55574,33.70272   C 485.85647,27.50222 493.95741,24.40197 502.15836,24.40197   C 510.35932,24.40197 518.56027,27.50222 524.76099,33.70272   C 530.76169,39.703205 534.06207,47.803858 534.06207,56.304545   C 534.06207,64.805231 530.76169,72.805876 524.76099,78.906369   L 515.25989,88.407136   C 510.75936,92.907499 505.25872,95.707725 499.45805,96.907822   C 499.058,97.00783 498.65796,97.107838 498.25791,97.207846   C 488.45677,98.907983 478.05556,96.107757 470.45468,88.607152   C 470.35467,88.507144 470.25466,88.407136 470.15464,88.307128   C 469.95462,88.20712 469.85461,88.107112 469.65459,87.907095   C 463.95392,82.006619 460.75355,74.105981 460.75355,65.805311   L 460.75355,65.805311   z  M 59.006858,180.9146   L 59.006858,180.9146   L 56.506568,162.3131   C 116.81358,160.31294 177.02057,145.91178 231.62692,120.30971   C 269.53133,102.40827 311.73623,93.007507 353.6411,93.007507   L 359.54179,93.007507   L 279.83252,172.71394   C 279.83252,172.71394 279.83252,172.71394 279.83252,172.81395   L 256.62983,196.01582   C 246.42864,206.11664 240.12791,219.21769 238.3277,233.21882   L 172.01999,335.52708   C 110.51284,306.22472 68.307939,248.52006 59.006858,180.9146   L 59.006858,180.9146   z  M 59.006858,180.9146   L 59.006858,180.9146   z "
     id="path25" />
  <path
     style="fill:#000000;fill-rule:nonzero;fill-opacity:1;stroke:none;"
     clip-path="url(#clipEmfPath1)"
     d="  M 142.8166,518.84188   L 142.8166,518.84188   L 40.704731,620.85011   C 35.504127,626.05053 35.504127,634.45121 40.704731,639.65163   C 43.305033,642.25184 46.705428,643.55194 50.105824,643.55194   C 53.506219,643.55194 57.006626,642.25184 59.606928,639.65163   L 161.61878,537.6434   C 166.81939,532.44298 166.81939,524.0423 161.61878,518.84188   C 156.41818,513.64146 148.0172,513.64146 142.8166,518.84188   L 142.8166,518.84188   z  M 142.8166,518.84188   L 142.8166,518.84188   z "
     id="path27" />
  <path
     style="fill:#000000;fill-rule:nonzero;fill-opacity:1;stroke:none;"
     clip-path="url(#clipEmfPath1)"
     d="  M 14.601697,652.55267   L 14.601697,652.55267   C 11.10129,652.55267 7.6008834,653.95278 5.2006044,656.45299   C 2.7003138,658.95319 1.3001511,662.35346 1.3001511,665.85374   C 1.3001511,669.35403 2.7003138,672.7543 5.2006044,675.2545   C 7.6008834,677.7547 11.10129,679.15482 14.601697,679.15482   C 18.102104,679.15482 21.502499,677.7547 24.00279,675.2545   C 26.403069,672.7543 27.903243,669.35403 27.903243,665.85374   C 27.903243,662.35346 26.403069,658.95319 24.00279,656.45299   C 21.502499,653.95278 18.102104,652.55267 14.601697,652.55267   L 14.601697,652.55267   z  M 14.601697,652.55267   L 14.601697,652.55267   z "
     id="path29" />
  <path
     style="fill:#000000;fill-rule:nonzero;fill-opacity:1;stroke:none;"
     clip-path="url(#clipEmfPath1)"
     d="  M 255.32968,518.84188   L 255.32968,518.84188   C 250.22908,513.64146 241.7281,513.64146 236.52749,518.84188   L 170.41981,584.94721   C 165.2192,590.14763 165.2192,598.54831 170.41981,603.74873   C 173.02011,606.34894 176.4205,607.64905 179.8209,607.64905   C 183.2213,607.64905 186.7217,606.34894 189.322,603.74873   L 255.32968,537.6434   C 260.53028,532.44298 260.53028,524.0423 255.32968,518.84188   L 255.32968,518.84188   z  M 255.32968,518.84188   L 255.32968,518.84188   z "
     id="path31" />
  <path
     style="fill:#000000;fill-rule:nonzero;fill-opacity:1;stroke:none;"
     clip-path="url(#clipEmfPath1)"
     d="  M 646.67516,286.72314   L 646.67516,286.72314   L 526.76122,314.32537   C 522.06068,315.32545 518.36025,318.92574 516.96008,323.62612   C 515.65993,328.22649 516.96008,333.2269 520.36048,336.62717   L 529.36153,345.72791   L 218.72542,656.35298   C 213.52482,661.5534 213.52482,669.95407 218.72542,675.15449   C 221.32572,677.7547 224.72612,679.05481 228.12651,679.05481   C 231.52691,679.05481 234.9273,677.7547 237.52761,675.15449   L 557.66482,355.12866   C 562.86542,349.92824 562.86542,341.52757 557.66482,336.32715   L 556.16464,334.82703   L 631.97345,317.42562   L 614.57143,393.23174   L 613.07126,391.73162   C 607.87065,386.5312 599.46967,386.5312 594.26907,391.73162   L 364.14232,621.85019   C 358.94172,627.05061 358.94172,635.5513 364.14232,640.75172   C 369.34293,645.95214 377.7439,645.95214 382.94451,640.75172   L 603.67016,420.0339   L 612.77122,429.03463   C 616.17162,432.4349 621.1722,433.73501 625.77273,432.4349   C 630.47328,431.03479 633.97368,427.33449 635.07381,422.63411   L 662.67702,302.62443   C 663.67714,298.22407 662.37699,293.52369 659.0766,290.32343   C 655.87623,287.02317 651.17568,285.72306 646.67516,286.72314   L 646.67516,286.72314   z  M 646.67516,286.72314   L 646.67516,286.72314   z "
     id="path33" />
  <path
     style="fill:#000000;fill-rule:nonzero;fill-opacity:1;stroke:none;"
     clip-path="url(#clipEmfPath1)"
     d="  M 339.13942,652.45266   L 339.13942,652.45266   C 335.539,652.45266 332.1386,653.85278 329.63831,656.35298   C 327.23803,658.85318 325.73786,662.25345 325.73786,665.75374   C 325.73786,669.25402 327.23803,672.65429 329.63831,675.15449   C 332.1386,677.6547 335.63901,679.05481 339.13942,679.05481   C 342.63982,679.05481 346.04022,677.6547 348.54051,675.15449   C 350.94079,672.65429 352.44096,669.25402 352.44096,665.75374   C 352.44096,662.25345 350.94079,658.85318 348.54051,656.35298   C 346.04022,653.85278 342.63982,652.45266 339.13942,652.45266   L 339.13942,652.45266   z  M 339.13942,652.45266   L 339.13942,652.45266   z "
     id="path35" />
</svg>
