<?xml version="1.0" encoding="UTF-8" standalone="no"?>
<svg
   xmlns:dc="http://purl.org/dc/elements/1.1/"
   xmlns:cc="http://creativecommons.org/ns#"
   xmlns:rdf="http://www.w3.org/1999/02/22-rdf-syntax-ns#"
   xmlns:svg="http://www.w3.org/2000/svg"
   xmlns="http://www.w3.org/2000/svg"
   xmlns:sodipodi="http://sodipodi.sourceforge.net/DTD/sodipodi-0.dtd"
   xmlns:inkscape="http://www.inkscape.org/namespaces/inkscape"
   version="1.0"
   width="180.32001mm"
   height="168.64mm"
   id="svg37"
   sodipodi:docname="image3.svg"
   inkscape:version="0.92.3 (2405546, 2018-03-11)">
  <metadata
     id="metadata41">
    <rdf:RDF>
      <cc:Work
         rdf:about="">
        <dc:format>image/svg+xml</dc:format>
        <dc:type
           rdf:resource="http://purl.org/dc/dcmitype/StillImage" />
        <dc:title></dc:title>
      </cc:Work>
    </rdf:RDF>
  </metadata>
  <sodipodi:namedview
     pagecolor="#ffffff"
     bordercolor="#666666"
     borderopacity="1"
     objecttolerance="10"
     gridtolerance="10"
     guidetolerance="10"
     inkscape:pageopacity="0"
     inkscape:pageshadow="2"
     inkscape:window-width="683"
     inkscape:window-height="749"
     id="namedview39"
     showgrid="false"
     inkscape:zoom="0.37026605"
     inkscape:cx="-52.198463"
     inkscape:cy="318.68976"
     inkscape:window-x="683"
     inkscape:window-y="0"
     inkscape:window-maximized="0"
     inkscape:current-layer="svg37" />
  <defs
     id="defs9">
    <clipPath
       clipPathUnits="userSpaceOnUse"
       id="clipEmfPath1">
      <path
         d="  M 0,0   L 0,0   L 0,639.12024   L 683.27478,639.12024   L 683.27478,0 "
         id="path2" />
    </clipPath>
    <clipPath
       clipPathUnits="userSpaceOnUse"
       id="clipEmfPath2">
      <path
         d="  M 0,0.40001266   L 0,0.40001266   L 0,639.02023   L 683.27478,639.02023   L 683.27478,0.40001266 "
         id="path5" />
    </clipPath>
    <pattern
       id="EMFhbasepattern"
       patternUnits="userSpaceOnUse"
       width="6"
       height="6"
       x="0"
       y="0" />
  </defs>
  <path
     style="fill:#3dbeb8;fill-rule:nonzero;fill-opacity:1;stroke:none;"
     clip-path="url(#clipEmfPath1)"
     d="  M 505.2553,207.20656   L 505.2553,207.20656   L 177.61944,207.20656   C 171.51877,207.20656 165.91816,210.30666 162.71781,215.30682   L 88.209654,330.01045   C 83.809172,336.71066 84.509249,345.51094 89.809829,351.51113   L 328.0359,619.0196   C 335.13668,626.91985 347.53803,626.91985 354.5388,619.0196   L 592.86488,351.51113   C 598.16546,345.51094 598.86554,336.71066 594.46506,330.01045   L 520.25694,215.30682   C 516.95658,210.30666 511.35596,207.20656 505.2553,207.20656   z "
     id="path11" />
  <path
     style="fill:#6acdc3;fill-rule:nonzero;fill-opacity:1;stroke:none;"
     clip-path="url(#clipEmfPath1)"
     d="  M 520.25694,215.30682   L 520.25694,215.30682   C 516.95658,210.30666 511.35596,207.20656 505.2553,207.20656   L 177.61944,207.20656   C 171.51877,207.20656 165.91816,210.30666 162.71781,215.30682   L 88.209654,330.01045   C 85.809391,333.61056 85.009303,337.71069 85.409347,341.71082   L 597.26537,341.71082   C 597.66541,337.71069 596.76531,333.61056 594.46506,330.01045   L 520.25694,215.30682   z "
     id="path13" />
  <path
     style="fill:#9cddd5;fill-rule:nonzero;fill-opacity:1;stroke:none;"
     clip-path="url(#clipEmfPath1)"
     d="  M 427.74681,341.71082   L 427.74681,341.71082   L 341.33736,622.41971   L 254.82789,341.71082   L 427.74681,341.71082   z "
     id="path15" />
  <path
     style="fill:#3dbeb8;fill-rule:nonzero;fill-opacity:1;stroke:none;"
     clip-path="url(#clipEmfPath1)"
     d="  M 254.82789,341.71082   L 254.82789,341.71082   L 341.33736,208.10659   L 427.74681,341.71082   L 254.82789,341.71082   z "
     id="path17" />
  <path
     style="fill:#9cddd5;fill-rule:nonzero;fill-opacity:1;stroke:none;"
     clip-path="url(#clipEmfPath1)"
     d="  M 78.408581,341.71082   L 78.408581,341.71082   L 164.81804,208.10659   L 251.32751,341.71082   L 78.408581,341.71082   z "
     id="path19" />
  <path
     style="fill:#9cddd5;fill-rule:nonzero;fill-opacity:1;stroke:none;"
     clip-path="url(#clipEmfPath2)"
     d="  M 425.54657,341.71082   L 425.54657,341.71082   L 511.95603,208.10659   L 598.4655,341.71082   L 425.54657,341.71082   z "
     id="path21" />
  <path
     style="fill:#151418;fill-rule:nonzero;fill-opacity:1;stroke:none;"
     clip-path="url(#clipEmfPath2)"
     d="  M 168.01839,231.50733   L 168.01839,231.50733   L 230.62524,328.4104   L 105.1115,328.4104   L 168.01839,231.50733   L 168.01839,231.50733   z  M 577.56321,328.4104   L 577.56321,328.4104   L 452.24949,328.4104   L 514.85635,231.60733   L 577.56321,328.4104   L 577.56321,328.4104   z  M 437.6479,355.01124   L 437.6479,355.01124   L 571.86259,355.01124   L 366.64013,585.41854   L 437.6479,355.01124   L 437.6479,355.01124   z  M 315.93458,585.31853   L 315.93458,585.31853   L 110.81213,355.01124   L 245.02682,355.01124   L 315.93458,585.31853   L 315.93458,585.31853   z  M 255.02791,316.91003   L 255.02791,316.91003   L 192.72109,220.60698   L 317.33473,220.60698   L 255.02791,316.91003   L 255.02791,316.91003   z  M 365.23997,220.60698   L 365.23997,220.60698   L 490.25365,220.60698   L 427.74681,317.21004   L 365.23997,220.60698   L 365.23997,220.60698   z  M 279.33057,328.4104   L 279.33057,328.4104   L 341.33736,232.60736   L 403.24413,328.4104   L 279.33057,328.4104   L 279.33057,328.4104   z  M 409.74484,355.01124   L 409.74484,355.01124   L 341.33736,577.11827   L 272.92987,355.01124   L 409.74484,355.01124   L 409.74484,355.01124   z  M 531.45816,208.10659   L 531.45816,208.10659   C 525.65753,199.20631 515.85646,193.90614 505.2553,193.90614   L 177.61944,193.90614   C 167.01828,193.90614 157.21721,199.20631 151.51658,208.10659   L 77.008428,322.81022   C 69.407596,334.51059 70.507716,350.01108 79.808734,360.41141   L 318.03481,627.81988   C 323.93545,634.52009 332.43638,638.32021 341.33736,638.32021   C 341.33736,638.32021 341.33736,638.32021 341.33736,638.32021   C 350.13832,638.32021 358.63925,634.52009 364.5399,627.81988   L 602.76597,360.41141   C 612.06699,350.01108 613.26712,334.51059 605.66628,322.81022   L 531.45816,208.10659   z "
     id="path23" />
  <path
     style="fill:#151418;fill-rule:nonzero;fill-opacity:1;stroke:none;"
     clip-path="url(#clipEmfPath2)"
     d="  M 40.404422,328.4104   L 40.404422,328.4104   L 13.301456,328.4104   C 5.9006458,328.4104 0,334.31058 0,341.71082   C 0,349.11105 5.9006458,355.01124 13.301456,355.01124   L 40.404422,355.01124   C 47.805232,355.01124 53.705878,349.11105 53.705878,341.71082   C 53.705878,334.31058 47.805232,328.4104 40.404422,328.4104   z "
     id="path25" />
  <path
     style="fill:#151418;fill-rule:nonzero;fill-opacity:1;stroke:none;"
     clip-path="url(#clipEmfPath1)"
     d="  M 669.37326,328.4104   L 669.37326,328.4104   L 642.27029,328.4104   C 634.86948,328.4104 628.86882,334.31058 628.86882,341.71082   C 628.86882,349.11105 634.86948,355.01124 642.27029,355.01124   L 669.37326,355.01124   C 676.67406,355.01124 682.67471,349.11105 682.67471,341.71082   C 682.67471,334.31058 676.67406,328.4104 669.37326,328.4104   z "
     id="path27" />
  <path
     style="fill:#151418;fill-rule:nonzero;fill-opacity:1;stroke:none;"
     clip-path="url(#clipEmfPath1)"
     d="  M 529.15791,167.5053   L 529.15791,167.5053   C 532.55828,167.5053 535.95866,166.20526 538.55894,163.60518   L 582.86379,119.30378   C 588.06436,114.10361 588.06436,105.60334 582.86379,100.40318   C 577.66322,95.203014 569.2623,95.203014 564.06173,100.40318   L 519.75688,144.70458   C 514.55631,149.90475 514.55631,158.30501 519.75688,163.60518   C 522.35717,166.20526 525.75754,167.5053 529.15791,167.5053   z "
     id="path29" />
  <path
     style="fill:#151418;fill-rule:nonzero;fill-opacity:1;stroke:none;"
     clip-path="url(#clipEmfPath1)"
     d="  M 144.61583,163.30517   L 144.61583,163.30517   C 147.21611,165.90525 150.61648,167.20529 154.01686,167.20529   C 157.51724,167.20529 160.91761,165.90525 163.5179,163.30517   C 168.71846,158.10501 168.71846,149.70474 163.5179,144.50458   L 119.21305,100.20317   C 114.01248,95.003008 105.51155,95.003008 100.31098,100.20317   C 95.110409,105.40334 95.110409,113.8036 100.31098,119.00377   L 144.61583,163.30517   z "
     id="path31" />
  <path
     style="fill:#151418;fill-rule:nonzero;fill-opacity:1;stroke:none;"
     clip-path="url(#clipEmfPath1)"
     d="  M 341.63739,113.90361   L 341.63739,113.90361   C 349.0382,113.90361 355.03886,108.00342 355.03886,100.60319   L 355.03886,13.700434   C 355.03886,6.3001995 349.0382,0.40001266 341.63739,0.40001266   C 334.33659,0.40001266 328.33593,6.3001995 328.33593,13.700434   L 328.33593,100.60319   C 328.33593,108.00342 334.33659,113.90361 341.63739,113.90361   z "
     id="path33" />
  <path
     style="fill:#151418;fill-rule:nonzero;fill-opacity:1;stroke:none;"
     clip-path="url(#clipEmfPath1)"
     d="  M 341.63739,159.00503   L 341.63739,159.00503   C 345.13777,159.00503 348.63816,157.60499 351.03842,155.10491   C 353.53869,152.60483 354.93884,149.20472 354.93884,145.70461   C 354.93884,142.2045 353.53869,138.70439 351.03842,136.30432   C 348.63816,133.80424 345.13777,132.40419 341.63739,132.40419   C 338.13701,132.40419 334.73663,133.80424 332.23636,136.30432   C 329.73609,138.70439 328.33593,142.2045 328.33593,145.70461   C 328.33593,149.20472 329.73609,152.60483 332.23636,155.10491   C 334.73663,157.60499 338.13701,159.00503 341.63739,159.00503   z "
     id="path35" />
</svg>
