<?xml version="1.0" encoding="UTF-8" standalone="no"?>
<svg
   xmlns:dc="http://purl.org/dc/elements/1.1/"
   xmlns:cc="http://creativecommons.org/ns#"
   xmlns:rdf="http://www.w3.org/1999/02/22-rdf-syntax-ns#"
   xmlns:svg="http://www.w3.org/2000/svg"
   xmlns="http://www.w3.org/2000/svg"
   xmlns:sodipodi="http://sodipodi.sourceforge.net/DTD/sodipodi-0.dtd"
   xmlns:inkscape="http://www.inkscape.org/namespaces/inkscape"
   version="1.0"
   width="180.32001mm"
   height="180.32001mm"
   id="svg54"
   sodipodi:docname="image4.svg"
   inkscape:version="0.92.3 (2405546, 2018-03-11)">
  <metadata
     id="metadata58">
    <rdf:RDF>
      <cc:Work
         rdf:about="">
        <dc:format>image/svg+xml</dc:format>
        <dc:type
           rdf:resource="http://purl.org/dc/dcmitype/StillImage" />
        <dc:title></dc:title>
      </cc:Work>
    </rdf:RDF>
  </metadata>
  <sodipodi:namedview
     pagecolor="#ffffff"
     bordercolor="#666666"
     borderopacity="1"
     objecttolerance="10"
     gridtolerance="10"
     guidetolerance="10"
     inkscape:pageopacity="0"
     inkscape:pageshadow="2"
     inkscape:window-width="683"
     inkscape:window-height="749"
     id="namedview56"
     showgrid="false"
     inkscape:zoom="0.34628252"
     inkscape:cx="-79.414924"
     inkscape:cy="340.76222"
     inkscape:window-x="683"
     inkscape:window-y="0"
     inkscape:window-maximized="0"
     inkscape:current-layer="svg54" />
  <defs
     id="defs6">
    <clipPath
       clipPathUnits="userSpaceOnUse"
       id="clipEmfPath1">
      <path
         d="  M 0,0   L 0,0   L 0,683.27478   L 683.27478,683.27478   L 683.27478,0 "
         id="path2" />
    </clipPath>
    <pattern
       id="EMFhbasepattern"
       patternUnits="userSpaceOnUse"
       width="6"
       height="6"
       x="0"
       y="0" />
  </defs>
  <path
     style="fill:#929899;fill-rule:nonzero;fill-opacity:1;stroke:none;"
     clip-path="url(#clipEmfPath1)"
     d="  M 603.066,90.709927   L 603.066,90.709927   L 603.066,510.85591   C 603.26602,536.25869 582.86379,556.96095 557.56102,557.26099   L 56.806217,557.26099   C 31.503448,556.96095 11.101215,536.25869 11.301237,510.85591   L 11.301237,90.709927   L 603.066,90.709927   z "
     id="path8" />
  <path
     style="fill:#f0eeee;fill-rule:nonzero;fill-opacity:1;stroke:none;"
     clip-path="url(#clipEmfPath1)"
     d="  M 568.86226,90.709927   L 568.86226,90.709927   L 568.86226,510.85591   C 569.16229,536.25869 548.76006,556.96095 523.35728,557.26099   L 56.806217,557.26099   C 31.503448,556.96095 11.101215,536.25869 11.301237,510.85591   L 11.301237,90.709927   L 568.86226,90.709927   z "
     id="path10" />
  <path
     style="fill:#652793;fill-rule:nonzero;fill-opacity:1;stroke:none;"
     clip-path="url(#clipEmfPath1)"
     d="  M 603.066,56.606195   L 603.066,56.606195   L 603.066,102.11118   L 11.301237,102.11118   L 11.301237,56.606195   C 11.301237,31.403437 31.70347,11.101215 56.806217,11.101215   L 557.56102,11.101215   C 582.66377,11.101215 603.066,31.403437 603.066,56.606195   z "
     id="path12" />
  <path
     style="fill:#8f2596;fill-rule:nonzero;fill-opacity:1;stroke:none;"
     clip-path="url(#clipEmfPath1)"
     d="  M 568.86226,56.606195   L 568.86226,56.606195   L 568.86226,102.11118   L 11.301237,102.11118   L 11.301237,56.606195   C 11.301237,31.403437 31.70347,11.101215 56.806217,11.101215   L 523.35728,11.101215   C 548.56003,11.101215 568.86226,31.403437 568.86226,56.606195   z "
     id="path14" />
  <path
     style="fill:#338f40;fill-rule:nonzero;fill-opacity:1;stroke:none;"
     clip-path="url(#clipEmfPath1)"
     d="  M 671.27346,432.04728   L 671.27346,432.04728   L 671.27346,602.76597   C 671.27346,640.47009 640.77013,671.07344 603.066,671.07344   L 443.74856,671.07344   C 406.04444,671.07344 375.44109,640.47009 375.44109,602.76597   L 375.44109,432.04728   C 375.44109,425.84661 380.54165,420.74605 386.84234,420.74605   L 659.97223,420.74605   C 666.17291,420.74605 671.27346,425.84661 671.27346,432.04728   z "
     id="path16" />
  <path
     style="fill:#57c043;fill-rule:nonzero;fill-opacity:1;stroke:none;"
     clip-path="url(#clipEmfPath1)"
     d="  M 637.16973,432.04728   L 637.16973,432.04728   L 637.16973,602.76597   C 637.16973,640.47009 606.56638,671.07344 568.86226,671.07344   L 443.74856,671.07344   C 406.04444,671.07344 375.44109,640.47009 375.44109,602.76597   L 375.44109,432.04728   C 375.44109,425.84661 380.54165,420.74605 386.84234,420.74605   L 625.76848,420.74605   C 632.06917,420.74605 637.16973,425.84661 637.16973,432.04728   z "
     id="path18" />
  <path
     style="fill:#57c043;fill-rule:nonzero;fill-opacity:1;stroke:none;"
     clip-path="url(#clipEmfPath1)"
     d="  M 79.608712,170.41865   L 79.608712,170.41865   L 193.42117,170.41865   L 193.42117,284.1311   L 79.608712,284.1311   L 79.608712,170.41865   z "
     id="path20" />
  <path
     style="fill:#57c043;fill-rule:nonzero;fill-opacity:1;stroke:none;"
     clip-path="url(#clipEmfPath1)"
     d="  M 79.608712,363.83982   L 79.608712,363.83982   L 193.42117,363.83982   L 193.42117,477.65227   L 79.608712,477.65227   L 79.608712,363.83982   z "
     id="path22" />
  <path
     style="fill:#338f40;fill-rule:nonzero;fill-opacity:1;stroke:none;"
     clip-path="url(#clipEmfPath1)"
     d="  M 523.35728,500.35476   L 523.35728,500.35476   C 535.95866,500.35476 546.15977,510.55588 546.15977,523.15725   C 546.15977,535.65862 535.95866,545.85974 523.35728,545.85974   C 510.85591,545.85974 500.65479,535.65862 500.65479,523.15725   C 500.65479,510.55588 510.85591,500.35476 523.35728,500.35476   z "
     id="path24" />
  <path
     style="fill:#151418;fill-rule:nonzero;fill-opacity:1;stroke:none;"
     clip-path="url(#clipEmfPath1)"
     d="  M 68.207465,68.007443   L 68.207465,68.007443   L 79.608712,68.007443   C 85.909402,68.007443 91.00996,62.906885 91.00996,56.606195   C 91.00996,50.305505 85.909402,45.204947 79.608712,45.204947   L 68.207465,45.204947   C 61.906775,45.204947 56.806217,50.305505 56.806217,56.606195   C 56.806217,62.906885 61.906775,68.007443 68.207465,68.007443   z "
     id="path26" />
  <path
     style="fill:#151418;fill-rule:nonzero;fill-opacity:1;stroke:none;"
     clip-path="url(#clipEmfPath1)"
     d="  M 125.11369,68.007443   L 125.11369,68.007443   L 136.51494,68.007443   C 142.81563,68.007443 147.91619,62.906885 147.91619,56.606195   C 147.91619,50.305505 142.81563,45.204947 136.51494,45.204947   L 125.11369,45.204947   C 118.813,45.204947 113.71244,50.305505 113.71244,56.606195   C 113.71244,62.906885 118.813,68.007443 125.11369,68.007443   z "
     id="path28" />
  <path
     style="fill:#151418;fill-rule:nonzero;fill-opacity:1;stroke:none;"
     clip-path="url(#clipEmfPath1)"
     d="  M 182.01992,68.007443   L 182.01992,68.007443   L 193.42117,68.007443   C 199.72186,68.007443 204.72241,62.906885 204.72241,56.606195   C 204.72241,50.305505 199.72186,45.204947 193.42117,45.204947   L 182.01992,45.204947   C 175.71923,45.204947 170.61867,50.305505 170.61867,56.606195   C 170.61867,62.906885 175.71923,68.007443 182.01992,68.007443   z "
     id="path30" />
  <path
     style="fill:#151418;fill-rule:nonzero;fill-opacity:1;stroke:none;"
     clip-path="url(#clipEmfPath1)"
     d="  M 238.92615,68.007443   L 238.92615,68.007443   L 546.15977,68.007443   C 552.46046,68.007443 557.56102,62.906885 557.56102,56.606195   C 557.56102,50.305505 552.46046,45.204947 546.15977,45.204947   L 238.92615,45.204947   C 232.62546,45.204947 227.5249,50.305505 227.5249,56.606195   C 227.5249,62.906885 232.62546,68.007443 238.92615,68.007443   z "
     id="path32" />
  <path
     style="fill:#151418;fill-rule:nonzero;fill-opacity:1;stroke:none;"
     clip-path="url(#clipEmfPath1)"
     d="  M 603.066,659.6722   L 603.066,659.6722   L 443.74856,659.6722   C 416.74561,659.6722 393.44306,640.67012 387.94246,614.16722   L 420.94607,614.16722   C 427.24676,614.16722 432.34732,609.06666 432.34732,602.76597   C 432.34732,596.46528 427.24676,591.36472 420.94607,591.36472   L 386.84234,591.36472   L 386.84234,568.66223   L 420.94607,568.66223   C 427.24676,568.66223 432.34732,563.56168 432.34732,557.26099   C 432.34732,550.9603 427.24676,545.85974 420.94607,545.85974   L 386.84234,545.85974   L 386.84234,523.15725   L 420.94607,523.15725   C 427.24676,523.15725 432.34732,518.0567 432.34732,511.75601   C 432.34732,505.45532 427.24676,500.35476 420.94607,500.35476   L 386.84234,500.35476   L 386.84234,477.65227   L 420.94607,477.65227   C 427.24676,477.65227 432.34732,472.55172 432.34732,466.25103   C 432.34732,459.95034 427.24676,454.84978 420.94607,454.84978   L 386.84234,454.84978   L 386.84234,432.04728   L 659.97223,432.04728   L 659.97223,454.84978   L 625.76848,454.84978   C 619.4678,454.84978 614.36724,459.95034 614.36724,466.25103   C 614.36724,472.55172 619.4678,477.65227 625.76848,477.65227   L 659.97223,477.65227   L 659.97223,500.35476   L 625.76848,500.35476   C 619.4678,500.35476 614.36724,505.45532 614.36724,511.75601   C 614.36724,518.0567 619.4678,523.15725 625.76848,523.15725   L 659.97223,523.15725   L 659.97223,545.85974   L 625.76848,545.85974   C 619.4678,545.85974 614.36724,550.9603 614.36724,557.26099   C 614.36724,563.56168 619.4678,568.66223 625.76848,568.66223   L 659.97223,568.66223   L 659.97223,591.36472   L 625.76848,591.36472   C 619.4678,591.36472 614.36724,596.46528 614.36724,602.76597   C 614.36724,609.06666 619.4678,614.16722 625.76848,614.16722   L 658.7721,614.16722   C 653.37151,640.67012 630.06896,659.6722 603.066,659.6722   L 603.066,659.6722   z  M 22.702485,511.75601   L 22.702485,511.75601   L 22.702485,113.51242   L 591.66475,113.51242   L 591.66475,247.6271   C 553.26055,222.52435 504.05516,220.42412 463.65074,242.32652   C 423.24632,264.22892 398.14357,306.53355 398.24358,352.43857   L 398.24358,409.3448   L 386.84234,409.3448   C 374.24096,409.3448 364.03984,419.54592 364.03984,432.04728   L 364.03984,545.85974   L 56.806217,545.85974   C 38.004159,545.85974 22.702485,530.55806 22.702485,511.75601   L 22.702485,511.75601   z  M 56.806217,22.402452   L 56.806217,22.402452   L 557.56102,22.402452   C 576.36308,22.402452 591.66475,37.704126 591.66475,56.606195   L 591.66475,90.709927   L 22.702485,90.709927   L 22.702485,56.606195   C 22.702485,37.704126 38.004159,22.402452 56.806217,22.402452   L 56.806217,22.402452   z  M 625.76848,409.3448   L 625.76848,409.3448   L 420.94607,409.3448   L 420.94607,352.43857   C 420.94607,295.83238 466.85109,250.02736 523.35728,250.02736   C 579.96347,250.02736 625.76848,295.83238 625.76848,352.43857   L 625.76848,409.3448   L 625.76848,409.3448   z  M 659.97223,409.3448   L 659.97223,409.3448   L 648.57098,409.3448   L 648.57098,352.43857   C 648.57098,320.53508 636.36964,289.93173 614.36724,266.8292   L 614.36724,56.606195   C 614.36724,25.202758 588.96446,-0.20002189 557.56102,-0.20002189   L 56.806217,-0.20002189   C 25.40278,-0.20002189 0,25.202758 0,56.606195   L 0,511.75601   C 0,543.15944 25.40278,568.56222 56.806217,568.66223   L 364.03984,568.66223   L 364.03984,602.76597   C 364.13985,646.77078 399.74375,682.37468 443.74856,682.47469   L 603.066,682.47469   C 646.97081,682.37468 682.67471,646.77078 682.67471,602.76597   L 682.67471,432.04728   C 682.67471,419.54592 672.4736,409.3448 659.97223,409.3448   z "
     id="path34" />
  <path
     style="fill:#151418;fill-rule:nonzero;fill-opacity:1;stroke:none;"
     clip-path="url(#clipEmfPath1)"
     d="  M 523.35728,534.45849   L 523.35728,534.45849   C 517.05659,534.45849 511.95603,529.35793 511.95603,523.15725   C 511.95603,516.85657 517.05659,511.75601 523.35728,511.75601   C 529.65797,511.75601 534.75852,516.85657 534.75852,523.15725   C 534.75852,529.35793 529.65797,534.45849 523.35728,534.45849   L 523.35728,534.45849   z  M 523.35728,488.95351   L 523.35728,488.95351   C 506.75546,488.95351 492.55391,500.85481 489.7536,517.25661   C 486.95329,533.6584 496.35432,549.66016 511.95603,555.16076   L 511.95603,580.06348   C 511.95603,586.26416 517.05659,591.36472 523.35728,591.36472   C 529.65797,591.36472 534.75852,586.26416 534.75852,580.06348   L 534.75852,555.16076   C 550.46024,549.66016 559.86127,533.6584 557.06097,517.25661   C 554.16065,500.85481 539.95909,488.95351 523.35728,488.95351   z "
     id="path36" />
  <path
     style="fill:#151418;fill-rule:nonzero;fill-opacity:1;stroke:none;"
     clip-path="url(#clipEmfPath1)"
     d="  M 193.42117,227.22487   L 193.42117,227.22487   C 187.12048,227.22487 182.01992,232.32543 182.01992,238.62612   L 182.01992,272.82986   L 91.00996,272.82986   L 91.00996,181.71989   L 136.51494,181.71989   C 142.81563,181.71989 147.91619,176.61933 147.91619,170.41865   C 147.91619,164.11796 142.81563,159.0174 136.51494,159.0174   L 91.00996,159.0174   C 78.408581,159.0174 68.207465,169.21852 68.207465,181.71989   L 68.207465,272.82986   C 68.207465,285.33123 78.408581,295.53234 91.00996,295.53234   L 182.01992,295.53234   C 194.6213,295.53234 204.72241,285.33123 204.72241,272.82986   L 204.72241,238.62612   C 204.72241,232.32543 199.72186,227.22487 193.42117,227.22487   z "
     id="path38" />
  <path
     style="fill:#151418;fill-rule:nonzero;fill-opacity:1;stroke:none;"
     clip-path="url(#clipEmfPath1)"
     d="  M 121.81333,207.82274   L 121.81333,207.82274   C 117.31284,203.52227 110.21206,203.62228 105.81158,208.02277   C 101.4111,212.32324 101.4111,219.42401 105.71157,223.92451   L 128.41405,246.727   C 130.61429,248.82723 133.51461,250.02736 136.51494,250.02736   L 137.015,250.02736   C 140.21535,249.92735 143.21567,248.42719 145.21589,245.92691   L 202.12212,177.71945   C 204.72241,174.5191 205.52249,170.31864 204.12234,166.41821   C 202.72219,162.6178 199.32181,159.81749 195.32138,159.11741   C 191.32094,158.51735 187.22049,159.9175 184.62021,163.11785   L 135.71485,221.82428   L 121.81333,207.82274   z "
     id="path40" />
  <path
     style="fill:#151418;fill-rule:nonzero;fill-opacity:1;stroke:none;"
     clip-path="url(#clipEmfPath1)"
     d="  M 193.42117,420.74605   L 193.42117,420.74605   C 187.12048,420.74605 182.01992,425.84661 182.01992,432.04728   L 182.01992,466.25103   L 91.00996,466.25103   L 91.00996,375.24107   L 136.51494,375.24107   C 142.81563,375.24107 147.91619,370.14051 147.91619,363.83982   C 147.91619,357.53913 142.81563,352.43857 136.51494,352.43857   L 91.00996,352.43857   C 78.408581,352.43857 68.207465,362.63969 68.207465,375.24107   L 68.207465,466.25103   C 68.207465,478.7524 78.408581,488.95351 91.00996,488.95351   L 182.01992,488.95351   C 194.6213,488.95351 204.72241,478.7524 204.72241,466.25103   L 204.72241,432.04728   C 204.72241,425.84661 199.72186,420.74605 193.42117,420.74605   z "
     id="path42" />
  <path
     style="fill:#151418;fill-rule:nonzero;fill-opacity:1;stroke:none;"
     clip-path="url(#clipEmfPath1)"
     d="  M 121.81333,401.24391   L 121.81333,401.24391   C 117.31284,396.94344 110.21206,397.04345 105.81158,401.44393   C 101.4111,405.84442 101.4111,412.94519 105.71157,417.34567   L 128.41405,440.14817   C 130.61429,442.2484 133.51461,443.44853 136.51494,443.44853   L 137.015,443.44853   C 140.21535,443.34852 143.21567,441.84836 145.21589,439.34808   L 202.12212,371.14062   C 204.72241,368.04028 205.52249,363.73981 204.12234,359.93939   C 202.72219,356.03897 199.32181,353.33867 195.32138,352.63859   C 191.32094,351.93852 187.22049,353.43868 184.62021,356.53902   L 135.71485,415.24544   L 121.81333,401.24391   z "
     id="path44" />
  <path
     style="fill:#151418;fill-rule:nonzero;fill-opacity:1;stroke:none;"
     clip-path="url(#clipEmfPath1)"
     d="  M 250.3274,193.12114   L 250.3274,193.12114   L 341.33736,193.12114   C 347.63805,193.12114 352.7386,188.02058 352.7386,181.71989   C 352.7386,175.4192 347.63805,170.41865 341.33736,170.41865   L 250.3274,170.41865   C 244.02671,170.41865 238.92615,175.4192 238.92615,181.71989   C 238.92615,188.02058 244.02671,193.12114 250.3274,193.12114   z "
     id="path46" />
  <path
     style="fill:#151418;fill-rule:nonzero;fill-opacity:1;stroke:none;"
     clip-path="url(#clipEmfPath1)"
     d="  M 250.3274,250.02736   L 250.3274,250.02736   L 398.24358,250.02736   C 404.54427,250.02736 409.54482,244.92681 409.54482,238.62612   C 409.54482,232.32543 404.54427,227.22487 398.24358,227.22487   L 250.3274,227.22487   C 244.02671,227.22487 238.92615,232.32543 238.92615,238.62612   C 238.92615,244.92681 244.02671,250.02736 250.3274,250.02736   z "
     id="path48" />
  <path
     style="fill:#151418;fill-rule:nonzero;fill-opacity:1;stroke:none;"
     clip-path="url(#clipEmfPath1)"
     d="  M 341.33736,363.83982   L 341.33736,363.83982   L 250.3274,363.83982   C 244.02671,363.83982 238.92615,368.94038 238.92615,375.24107   C 238.92615,381.44175 244.02671,386.5423 250.3274,386.5423   L 341.33736,386.5423   C 347.63805,386.5423 352.7386,381.44175 352.7386,375.24107   C 352.7386,368.94038 347.63805,363.83982 341.33736,363.83982   z "
     id="path50" />
  <path
     style="fill:#151418;fill-rule:nonzero;fill-opacity:1;stroke:none;"
     clip-path="url(#clipEmfPath1)"
     d="  M 329.93611,420.74605   L 329.93611,420.74605   L 250.3274,420.74605   C 244.02671,420.74605 238.92615,425.84661 238.92615,432.04728   C 238.92615,438.34797 244.02671,443.44853 250.3274,443.44853   L 329.93611,443.44853   C 336.2368,443.44853 341.33736,438.34797 341.33736,432.04728   C 341.33736,425.84661 336.2368,420.74605 329.93611,420.74605   z "
     id="path52" />
</svg>
