<svg version="1.1" width="512" height="512" viewBox="0 0 511.389 511.389" xmlns="http://www.w3.org/2000/svg" xmlns:xlink="http://www.w3.org/1999/xlink" id="Layer_1" overflow="hidden"><g><rect x="0" y="452.541" width="511.389" height="58.824"/><rect x="355.085" y="200.138" width="73.244" height="222.403"/><path d=" M 325.085 422.541 L 325.085 200.138 L 186.304 200.138 L 186.304 422.541 L 325.085 422.541 Z M 253.269 318.238 C 245.138 314.543 241.051 312.041 235.855 307.567 C 229.833 302.213 226.934 295.433 226.934 286.787 C 226.934 273.862 234.704 262.89 246.274 258.812 L 246.274 245.87 L 267.325 245.87 L 267.325 258.895 C 274.995 261.468 281.026 267.005 285.294 275.404 L 287.334 279.418 L 269.277 291.116 L 266.669 286.471 C 262.964 279.87 260.066 278.663 255.695 278.663 C 252.053 278.663 249.091 281.873 249.091 285.819 C 249.091 288.673 249.654 290.574 252.711 292.973 L 252.847 293.067 C 254.753 294.378 256.403 295.512 257.631 296.187 L 265.041 300.031 C 270.575 302.797 273.488 304.31 278.467 308.081 C 286.538 314.091 290.353 321.482 290.804 332.022 L 290.809 332.236 C 290.809 341.28 287.853 349.068 282.024 355.382 C 277.936 359.864 273.003 362.949 267.325 364.575 L 267.325 377.435 L 246.274 377.435 L 246.274 364.66 C 233.404 360.862 223.57 350.013 220.683 336.007 L 219.971 332.549 L 239.096 320.973 L 240.888 327.277 C 244.964 341.621 249.998 344.503 256.8 344.503 C 261.002 344.503 263.868 343.352 266.085 340.773 C 267.788 338.67 268.652 335.891 268.652 332.512 C 268.652 327.317 264.771 323.715 253.269 318.238 Z"/><rect x="83.06" y="200.138" width="73.244" height="222.403"/><path d=" M 428.329 170.138 L 479.949 170.138 L 479.949 110.134 L 421.067 110.134 L 421.064 110.132 L 90.324 110.132 L 90.321 110.134 L 31.439 110.134 L 31.439 170.138 L 83.06 170.138 Z"/><path d=" M 255.667 0.023 L 135.373 80.132 L 376 80.132 Z"/></g></svg>