<svg version="1.1" viewBox="0 0 299.739 299.739" xmlns="http://www.w3.org/2000/svg" xmlns:xlink="http://www.w3.org/1999/xlink" id="Layer_1" overflow="hidden"><g id="XMLID_1331_"><g><g><path d=" M 102.777 290.386 C 104.785 295.845 110.031 299.739 116.186 299.739 C 124.075 299.739 130.47 293.344 130.47 285.455 L 130.47 281.624 L 105.938 289.702 C 104.907 290.04 103.849 290.26 102.777 290.386 Z"/><circle cx="133.551" cy="24.67" r="24.67"/><path d=" M 68.905 207.751 C 67.506 201.672 69.697 195.615 74.204 191.851 L 72.028 185.242 L 69.773 192.092 L 67.425 191.319 C 63.686 190.088 59.626 191.914 58.066 195.528 L 29.467 261.802 C 27.698 265.902 29.83 270.64 34.07 272.036 L 63.345 281.675 C 67.586 283.071 72.115 280.526 73.128 276.177 L 78.983 251.033 L 68.915 207.792 C 68.91 207.778 68.909 207.765 68.905 207.751 Z"/><path d=" M 268.986 239.337 L 221.127 185.304 C 218.517 182.358 214.089 181.89 210.922 184.227 L 208.932 185.695 L 204.65 179.891 L 204.646 186.849 C 210.103 189.018 214.076 194.089 214.644 200.301 C 214.645 200.315 214.648 200.329 214.649 200.343 L 218.583 244.566 L 231.994 266.626 C 234.313 270.441 239.412 271.445 243.004 268.795 L 267.807 250.499 C 271.4 247.846 271.946 242.678 268.986 239.337 Z"/><path d=" M 206.233 201.09 C 205.884 197.169 202.601 194.163 198.664 194.16 L 196.192 194.159 L 196.198 183.878 C 201.205 182.003 204.492 176.915 203.846 171.365 C 203.423 167.734 194.147 88.118 193.723 84.481 C 193.248 69.372 180.771 57.202 165.567 57.202 C 162.121 57.202 120.223 57.202 101.536 57.202 C 86.082 57.202 73.444 69.776 73.367 85.231 C 73.367 85.26 73.367 85.29 73.367 85.319 C 73.375 88.765 73.57 169.554 73.578 172.77 C 73.59 177.491 76.354 181.551 80.341 183.466 L 84.519 196.155 L 82.171 196.928 C 78.433 198.159 76.251 202.039 77.144 205.874 L 93.513 276.175 C 94.53 280.54 99.073 283.063 103.296 281.673 L 132.571 272.034 C 136.789 270.646 138.954 265.924 137.174 261.8 L 108.575 195.526 C 107.015 191.911 102.954 190.086 99.216 191.317 L 96.868 192.09 L 93.414 181.6 C 95.853 179.414 97.393 176.247 97.385 172.713 C 97.377 169.418 97.183 88.697 97.174 85.322 C 97.183 84.54 99.768 83.91 100.549 83.906 C 101.331 83.902 101.972 84.526 101.989 85.308 L 101.896 171.278 L 101.902 171.278 L 101.902 180.363 L 102.611 182.516 C 108.612 182.895 113.926 186.603 116.332 192.178 L 130.47 224.94 L 130.47 171.278 L 136.638 171.278 L 136.638 239.233 L 144.932 258.452 C 148.41 266.511 144.765 275.942 136.638 279.511 L 136.638 285.453 C 136.638 293.342 143.033 299.737 150.922 299.737 C 158.336 299.737 164.43 294.089 165.136 286.86 C 160.21 283.475 157.742 277.787 158.245 272.201 L 165.595 195.134 C 165.595 195.134 164.508 183.481 164.307 85.727 C 164.304 84.417 165.313 83.328 166.618 83.229 C 167.923 83.13 169.737 84.055 169.929 85.351 C 169.929 85.351 169.929 85.352 169.929 85.352 C 170.073 86.323 173.997 120.934 180.198 174.121 C 180.496 176.681 181.592 178.949 183.199 180.723 L 183.191 194.152 C 183.19 194.152 180.714 194.151 180.714 194.151 C 176.78 194.151 173.495 197.153 173.142 201.072 L 166.661 272.962 C 166.637 273.228 166.627 273.493 166.631 273.758 C 166.692 277.91 170.079 281.246 174.229 281.248 L 205.05 281.266 C 205.052 281.266 205.053 281.266 205.055 281.266 C 209.515 281.266 213.023 277.436 212.627 272.99 L 206.233 201.09 Z"/></g></g></g><g></g><g></g><g></g><g></g><g></g><g></g><g></g><g></g><g></g><g></g><g></g><g></g><g></g><g></g><g></g></svg>