<svg version="1.1" viewBox="0 0 512 512" xmlns="http://www.w3.org/2000/svg" xmlns:xlink="http://www.w3.org/1999/xlink" id="Capa_1" overflow="hidden"><path d=" M 214.582 251.558 C 226.862 261.923 239.561 272.641 253.055 284.336 C 255.874 286.779 259.376 288.001 262.879 288.001 C 266.381 288.001 269.884 286.779 272.703 284.336 C 286.195 272.643 298.892 261.926 311.172 251.563 C 332.514 233.549 350.945 217.993 366.939 202.903 C 397.992 173.605 426.726 140.35 426.726 95.789 C 426.726 70.46 418.031 46.739 402.243 28.995 C 385.606 10.297 362.543 0 337.303 0 C 309.131 0 284.71 13.321 266.681 38.522 C 265.329 40.411 264.064 42.301 262.879 44.171 C 261.695 42.3 260.43 40.411 259.078 38.522 C 241.049 13.321 216.628 0 188.456 0 C 163.216 0 140.153 10.297 123.517 28.994 C 107.729 46.738 99.034 70.459 99.034 95.788 C 99.034 123.313 109.715 148.712 132.645 175.722 C 152.653 199.287 181.352 223.51 214.582 251.558 Z" fill="#FF3F2E"/><path d=" M 503.034 373.999 L 431.033 469.999 C 411.234 496.399 380.033 512 347.033 512 L 213.233 512 C 166.433 512 120.534 502.4 77.334 484.1 L 74.034 391.699 C 94.133 295.398 193.734 271.399 251.333 322.099 C 257.634 327.198 264.833 330.5 272.033 331.399 C 274.133 332 275.933 332 277.733 332 L 332.033 332 C 337.433 332 342.532 333.5 347.033 336.2 C 355.732 340.999 361.733 350.599 362.033 361.699 L 362.033 361.999 C 362.033 373.099 356.033 382.699 347.033 387.799 C 342.532 390.5 337.433 391.999 332.033 391.999 L 240.533 391.999 C 232.132 391.999 225.533 398.598 225.533 406.999 C 225.533 415.398 232.132 421.999 240.533 421.999 L 356.933 421.999 C 371.933 421.999 382.733 415.698 392.032 405.199 L 460.133 326.599 C 470.933 314.899 489.532 313.998 500.632 323.598 C 503.333 325.698 505.731 328.099 507.531 331.098 C 514.434 341.3 513.533 360.2 503.034 373.999 Z" fill="#F2D1A5"/><path d=" M 122.034 347 C 122.034 322.186 101.848 302 77.034 302 L 15.034 302 C 6.743 302 0.034 308.709 0.034 317 L 0.034 497 C 0.034 505.291 6.743 512 15.034 512 L 77.034 512 C 101.848 512 122.034 491.814 122.034 467 L 122.034 347 Z" fill="#1EA1E3"/><g><path d=" M 262.879 392 L 332.033 392 C 337.433 392 342.532 390.5 347.033 387.8 C 356.033 382.701 362.033 373.1 362.033 362 L 362.033 361.7 C 361.733 350.6 355.732 341 347.033 336.201 C 342.532 333.5 337.433 332.001 332.033 332.001 L 277.733 332.001 C 275.933 332.001 274.133 332.001 272.033 331.4 C 268.957 331.016 265.885 330.169 262.879 328.954 L 262.879 392 Z" fill="#F2BB88"/><path d=" M 431.033 469.999 L 503.034 373.999 C 513.533 360.2 514.434 341.3 507.533 331.099 C 505.733 328.1 503.335 325.699 500.634 323.599 C 489.534 313.999 470.934 314.9 460.135 326.6 L 392.034 405.2 C 382.734 415.699 371.934 422 356.934 422 L 262.879 422 L 262.879 512 L 347.033 512 C 380.033 512 411.234 496.399 431.033 469.999 Z" fill="#F2BB88"/></g><path d=" M 272.703 284.335 C 286.195 272.642 298.892 261.925 311.172 251.562 C 332.514 233.548 350.945 217.992 366.939 202.902 C 397.992 173.604 426.726 140.349 426.726 95.788 C 426.726 70.459 418.031 46.738 402.243 28.994 C 385.606 10.297 362.543 0 337.303 0 C 309.131 0 284.71 13.321 266.681 38.522 C 265.329 40.411 264.064 42.301 262.879 44.171 L 262.879 288 C 266.381 288 269.884 286.778 272.703 284.335 Z" fill="#CF0404"/><g></g><g></g><g></g><g></g><g></g><g></g><g></g><g></g><g></g><g></g><g></g><g></g><g></g><g></g><g></g></svg>