<?xml version="1.0" encoding="utf-8"?>
<!-- Generator: Adobe Illustrator 15.1.0, SVG Export Plug-In . SVG Version: 6.00 Build 0)  -->
<!DOCTYPE svg PUBLIC "-//W3C//DTD SVG 1.1//EN" "http://www.w3.org/Graphics/SVG/1.1/DTD/svg11.dtd">
<svg version="1.1" id="Capa_1" xmlns="http://www.w3.org/2000/svg" xmlns:xlink="http://www.w3.org/1999/xlink" x="0px" y="0px"
	 width="395.71px" height="395.711px" viewBox="0 0 395.71 395.711" enable-background="new 0 0 395.71 395.711"
	 xml:space="preserve">
<g>
	<g id="XMLID_1_">
		<g>
			<path d="M197.845-0.005c75.72,0,137.33,61.61,137.33,137.33c0,72.89-124.58,243.18-129.891,250.39l-4.949,6.739
				c-0.591,0.79-1.5,1.261-2.49,1.261c-0.97,0-1.89-0.471-2.47-1.261l-4.95-6.739c-5.3-7.21-129.89-177.5-129.89-250.39
				C60.535,61.605,122.135-0.005,197.845-0.005z M247.045,137.325c0-27.13-22.07-49.19-49.2-49.19c-27.11,0-49.19,22.06-49.19,49.19
				c0,27.12,22.08,49.2,49.19,49.2C224.975,186.525,247.045,164.445,247.045,137.325z"/>
			<path fill="#FFFFFF" d="M197.845,88.135c27.13,0,49.2,22.06,49.2,49.19c0,27.12-22.07,49.2-49.2,49.2
				c-27.11,0-49.19-22.08-49.19-49.2C148.655,110.195,170.735,88.135,197.845,88.135z"/>
		</g>
		<g>
		</g>
	</g>
</g>
</svg>
