<svg version="1.1" width="682.667" height="682.667" viewBox="0 -79 512 512" xmlns="http://www.w3.org/2000/svg" xmlns:xlink="http://www.w3.org/1999/xlink" overflow="hidden"><path d=" M 492 0 L 98.6719 0 C 87.625 0 78.6719 8.95313 78.6719 20 L 78.6719 78.6602 L 20 78.6602 C 8.95313 78.6602 0 87.6133 0 98.6602 L 0 334.66 C 0 345.707 8.95313 354.66 20 354.66 L 177.328 354.66 C 188.375 354.66 197.328 345.707 197.328 334.66 L 197.328 276 L 275.332 276 L 275.332 314.66 L 236.332 314.66 C 225.285 314.66 216.332 323.613 216.332 334.66 C 216.332 345.707 225.285 354.66 236.332 354.66 L 354.332 354.66 C 365.379 354.66 374.332 345.707 374.332 334.66 C 374.332 323.613 365.379 314.66 354.332 314.66 L 315.332 314.66 L 315.332 276 L 492 276 C 503.047 276 512 267.047 512 256 L 512 20 C 512 8.95313 503.047 0 492 0 Z M 157.328 314.66 L 40 314.66 L 40 118.66 L 157.328 118.66 Z M 472 236 C 455.691 236 213.211 236 197.328 236 L 197.328 98.6602 C 197.328 87.6133 188.375 78.6602 177.328 78.6602 L 118.672 78.6602 L 118.672 40 L 472 40 Z"/></svg>