<svg version="1.1" width="95.633" height="95.633" viewBox="0 0 95.633 95.633" xmlns="http://www.w3.org/2000/svg" xmlns:xlink="http://www.w3.org/1999/xlink" id="Capa_1" overflow="hidden"><g><path d=" M 93.632 18.49 L 2 18.49 C 0.896 18.49 0 19.386 0 20.49 L 0 75.142 C 0 76.246 0.896 77.142 2 77.142 L 93.633 77.142 C 94.737 77.142 95.633 76.246 95.633 75.142 L 95.633 20.49 C 95.632 19.385 94.736 18.49 93.632 18.49 Z M 25.348 25.253 C 30.788 25.253 35.198 29.662 35.198 35.102 C 35.198 40.542 30.789 44.953 25.348 44.953 C 19.907 44.953 15.498 40.543 15.498 35.102 C 15.499 29.663 19.908 25.253 25.348 25.253 Z M 40.637 70.379 L 25.516 70.379 L 10.395 70.379 C 4.457 63.597 11.512 51.334 11.512 51.334 C 13.55 48.029 18.783 46.45 23.752 46.101 C 24.337 46.059 24.927 47.352 25.516 47.524 C 26.105 47.352 26.695 46.059 27.28 46.101 C 32.249 46.452 37.482 48.031 39.52 51.334 C 39.52 51.334 46.575 63.597 40.637 70.379 Z M 86.566 67.066 C 86.566 67.894 85.894 68.566 85.066 68.566 L 60.566 68.566 C 59.738 68.566 59.066 67.894 59.066 67.066 L 59.066 62.941 C 59.066 62.113 59.738 61.441 60.566 61.441 L 85.066 61.441 C 85.894 61.441 86.566 62.113 86.566 62.941 L 86.566 67.066 Z M 86.566 54.066 C 86.566 54.894 85.894 55.566 85.066 55.566 L 60.566 55.566 C 59.738 55.566 59.066 54.894 59.066 54.066 L 59.066 49.941 C 59.066 49.113 59.738 48.441 60.566 48.441 L 85.066 48.441 C 85.894 48.441 86.566 49.113 86.566 49.941 L 86.566 54.066 Z M 86.566 41.066 C 86.566 41.894 85.894 42.566 85.066 42.566 L 47.566 42.566 C 46.738 42.566 46.066 41.894 46.066 41.066 L 46.066 28.566 C 46.066 27.738 46.738 27.066 47.566 27.066 L 85.066 27.066 C 85.894 27.066 86.566 27.738 86.566 28.566 L 86.566 41.066 Z"/></g><g></g><g></g><g></g><g></g><g></g><g></g><g></g><g></g><g></g><g></g><g></g><g></g><g></g><g></g><g></g></svg>