<svg version="1.1" width="466.146" height="466.146" viewBox="0 0 466.146 466.146" xmlns="http://www.w3.org/2000/svg" xmlns:xlink="http://www.w3.org/1999/xlink" id="Capa_1" overflow="hidden"><g><path d=" M 289.285 191.86 C 318.129 173.321 337.28 141.03 337.28 104.206 C 337.28 46.659 290.621 0 233.088 0 C 175.529 0 128.881 46.659 128.881 104.207 C 128.881 141.031 148.032 173.328 176.877 191.861 C 108.918 197.943 55.455 255.192 55.455 324.715 L 55.455 432.87 L 55.729 434.56 L 63.186 436.888 C 133.382 458.817 194.381 466.147 244.587 466.147 C 342.635 466.147 399.473 438.177 402.995 436.404 L 409.958 432.87 L 410.69 432.87 L 410.69 324.714 C 410.698 255.197 357.253 197.957 289.285 191.86 Z"/></g><g></g><g></g><g></g><g></g><g></g><g></g><g></g><g></g><g></g><g></g><g></g><g></g><g></g><g></g><g></g></svg>