<?xml version="1.0" encoding="utf-8"?>
<!-- Generator: Adobe Illustrator 15.1.0, SVG Export Plug-In . SVG Version: 6.00 Build 0)  -->
<!DOCTYPE svg PUBLIC "-//W3C//DTD SVG 1.1//EN" "http://www.w3.org/Graphics/SVG/1.1/DTD/svg11.dtd">
<svg version="1.1" id="Capa_1" xmlns="http://www.w3.org/2000/svg" xmlns:xlink="http://www.w3.org/1999/xlink" x="0px" y="0px"
	 width="841.891px" height="595.281px" viewBox="0 0 841.891 595.281" enable-background="new 0 0 841.891 595.281"
	 xml:space="preserve">
<g>
	<g>
		<path d="M714.322,275.874L429.084,27.841c-4.675-4.045-11.602-4.045-16.277,0L127.568,275.874
			c-3.899,3.402-5.292,8.865-3.477,13.71c1.816,4.845,6.443,8.054,11.615,8.054h62.008v260.435c0,6.855,5.547,12.402,12.402,12.402
			h421.656c6.855,0,12.402-5.547,12.402-12.402V297.637h62.008c5.171,0,9.798-3.209,11.615-8.054
			C719.615,284.739,718.221,279.276,714.322,275.874z M420.945,471.26c-13.673,0-24.803-11.131-24.803-24.804
			c0-13.672,11.13-24.803,24.803-24.803c13.674,0,24.804,11.131,24.804,24.803C445.749,460.13,434.619,471.26,420.945,471.26z
			 M477.988,419.123c-5.498,4.13-13.237,3.041-17.368-2.445c-19.002-25.228-60.446-25.203-79.363,0.024
			c-2.435,3.246-6.164,4.952-9.931,4.952c-2.592,0-5.208-0.812-7.437-2.482c-5.474-4.117-6.576-11.893-2.471-17.367
			c14.206-18.905,35.896-29.757,59.525-29.757c23.593,0,45.271,10.827,59.49,29.708
			C484.552,407.229,483.462,415.006,477.988,419.123z M513.885,383.42c-2.337,1.985-5.195,2.967-8.054,2.967
			c-3.499,0-6.976-1.478-9.435-4.349c-18.894-22.114-46.397-34.795-75.452-34.795s-56.546,12.681-75.451,34.783
			c-4.445,5.208-12.281,5.825-17.477,1.369c-5.207-4.445-5.824-12.269-1.368-17.477c23.617-27.637,57.987-43.479,94.296-43.479
			c36.321,0,70.705,15.853,94.32,43.49C519.711,371.139,519.093,378.963,513.885,383.42z M549.214,348.008
			c-5.087,4.565-12.946,4.143-17.514-0.945c-28.206-31.403-68.572-49.425-110.755-49.425c-42.206,0-82.597,18.033-110.803,49.474
			c-2.446,2.725-5.838,4.118-9.229,4.118c-2.955,0-5.909-1.042-8.284-3.173c-5.098-4.579-5.522-12.414-0.945-17.514
			c32.906-36.673,80.018-57.708,129.261-57.708c49.207,0,96.307,21.013,129.212,57.66
			C554.736,335.594,554.311,343.428,549.214,348.008z"/>
	</g>
</g>
</svg>
