<svg version="1.1" viewBox="0 0 58 58" xmlns="http://www.w3.org/2000/svg" xmlns:xlink="http://www.w3.org/1999/xlink" id="Capa_1" overflow="hidden"><g id="XMLID_21_"><path d=" M 29 48 C 14.641 48 3 45.038 3 42 L 3 48.996 C 3.008 52.032 14.645 55 29 55 C 43.355 55 54.992 52.032 55 48.996 L 55 42 C 55 45.038 43.359 48 29 48" id="XMLID_148_" fill="#E4AF18"/><path d=" M 26 37 C 11.641 37 0 34.038 0 31 L 0 37.996 C 0.008 41.032 11.645 44 26 44 C 40.355 44 51.992 41.032 52 37.996 L 52 31 C 52 34.038 40.359 37 26 37" id="XMLID_147_" fill="#F4BF1A"/><path d=" M 32 26 C 17.641 26 6 23.038 6 20 L 6 26.996 C 6.008 30.032 17.645 33 32 33 C 46.355 33 57.992 30.032 58 26.996 L 58 20 C 58 23.038 46.359 26 32 26" id="XMLID_146_" fill="#E4AF18"/><path d=" M 52 8.13 C 52 11.167 40.359 14 26 14 C 11.641 14 0 11.167 0 8.13 C 0 5.092 11.641 3 26 3 C 40.359 3 52 5.092 52 8.13" id="XMLID_145_" fill="#FFD949"/><path d=" M 26 14 C 11.641 14 0 11.038 0 8 L 0 14.996 C 0.008 18.032 11.645 21 26 21 C 40.355 21 51.992 18.032 52 14.996 L 52 8 C 52 11.038 40.359 14 26 14" id="XMLID_144_" fill="#F4BF1A"/><path d=" M 4 11.074 L 4 18.069 C 4.608 18.293 5.274 18.509 6 18.715 L 6 11.719 C 5.274 11.513 4.608 11.297 4 11.074" id="XMLID_143_" fill="#DCA815"/><path d=" M 46 11.719 L 46 18.715 C 46.726 18.509 47.392 18.293 48 18.069 L 48 11.074 C 47.392 11.298 46.726 11.513 46 11.719" id="XMLID_142_" fill="#DCA815"/><path d=" M 9 12.445 L 9 19.442 C 9.64 19.575 10.307 19.701 11 19.82 L 11 12.823 C 10.307 12.704 9.64 12.578 9 12.445" id="XMLID_141_" fill="#DCA815"/><path d=" M 41 12.823 L 41 19.821 C 41.693 19.701 42.36 19.575 43 19.442 L 43 12.445 C 42.36 12.578 41.693 12.704 41 12.823" id="XMLID_140_" fill="#DCA815"/><path d=" M 14 13.269 L 14 20.267 C 14.652 20.351 15.317 20.429 16 20.499 L 16 13.501 C 15.317 13.431 14.652 13.352 14 13.269" id="XMLID_139_" fill="#DCA815"/><path d=" M 36 13.502 L 36 20.5 C 36.683 20.429 37.348 20.351 38 20.268 L 38 13.269 C 37.348 13.354 36.683 13.432 36 13.502" id="XMLID_138_" fill="#DCA815"/><path d=" M 19 13.759 L 19 20.758 C 19.657 20.804 20.323 20.845 21 20.878 L 21 13.878 C 20.323 13.845 19.657 13.805 19 13.759" id="XMLID_137_" fill="#DCA815"/><path d=" M 31 13.878 L 31 20.878 C 31.677 20.845 32.343 20.804 33 20.758 L 33 13.759 C 32.343 13.805 31.677 13.845 31 13.878" id="XMLID_136_" fill="#DCA815"/><path d=" M 26 14 C 25.665 14 25.332 13.997 25 13.994 L 25 20.994 C 25.332 20.997 25.665 21 26 21 C 26.335 21 26.668 20.997 27 20.994 L 27 13.994 C 26.668 13.997 26.335 14 26 14" id="XMLID_135_" fill="#DCA815"/><path d=" M 10 23.074 L 10 30.069 C 10.608 30.293 11.274 30.509 12 30.715 L 12 23.719 C 11.274 23.513 10.608 23.297 10 23.074" id="XMLID_134_" fill="#C49214"/><path d=" M 52 23.719 L 52 30.715 C 52.726 30.509 53.392 30.293 54 30.069 L 54 23.074 C 53.392 23.298 52.726 23.513 52 23.719" id="XMLID_133_" fill="#C49214"/><path d=" M 15 24.445 L 15 31.442 C 15.64 31.575 16.307 31.701 17 31.82 L 17 24.823 C 16.307 24.704 15.64 24.578 15 24.445" id="XMLID_132_" fill="#C49214"/><path d=" M 47 24.823 L 47 31.821 C 47.693 31.701 48.36 31.575 49 31.442 L 49 24.445 C 48.36 24.578 47.693 24.704 47 24.823" id="XMLID_131_" fill="#C49214"/><path d=" M 20 25.27 L 20 32.268 C 20.652 32.352 21.317 32.43 22 32.5 L 22 25.502 C 21.317 25.431 20.652 25.353 20 25.27" id="XMLID_130_" fill="#C49214"/><path d=" M 42 25.501 L 42 32.5 C 42.683 32.429 43.348 32.351 44 32.268 L 44 25.27 C 43.348 25.354 42.683 25.432 42 25.501" id="XMLID_129_" fill="#C49214"/><path d=" M 25 25.759 L 25 32.758 C 25.657 32.804 26.323 32.845 27 32.878 L 27 25.878 C 26.323 25.845 25.657 25.805 25 25.759" id="XMLID_128_" fill="#C49214"/><path d=" M 37 25.878 L 37 32.878 C 37.677 32.845 38.343 32.804 39 32.758 L 39 25.759 C 38.343 25.805 37.677 25.845 37 25.878" id="XMLID_127_" fill="#C49214"/><path d=" M 32 26 C 31.665 26 31.332 25.997 31 25.994 L 31 32.994 C 31.332 32.997 31.665 33 32 33 C 32.335 33 32.668 32.997 33 32.994 L 33 25.994 C 32.668 25.997 32.335 26 32 26" id="XMLID_126_" fill="#C49214"/><path d=" M 4 34.074 L 4 41.069 C 4.608 41.293 5.274 41.508 6 41.715 L 6 34.719 C 5.274 34.513 4.608 34.297 4 34.074" id="XMLID_125_" fill="#DCA815"/><path d=" M 46 34.719 L 46 41.715 C 46.726 41.509 47.392 41.293 48 41.069 L 48 34.074 C 47.392 34.298 46.726 34.513 46 34.719" id="XMLID_124_" fill="#DCA815"/><path d=" M 9 35.445 L 9 42.442 C 9.64 42.575 10.307 42.701 11 42.82 L 11 35.823 C 10.307 35.704 9.64 35.578 9 35.445" id="XMLID_123_" fill="#DCA815"/><path d=" M 41 35.823 L 41 42.821 C 41.693 42.701 42.36 42.575 43 42.442 L 43 35.445 C 42.36 35.578 41.693 35.704 41 35.823" id="XMLID_122_" fill="#DCA815"/><path d=" M 14 36.27 L 14 43.268 C 14.652 43.352 15.317 43.43 16 43.5 L 16 36.502 C 15.317 36.431 14.652 36.353 14 36.27" id="XMLID_121_" fill="#DCA815"/><path d=" M 36 36.501 L 36 43.5 C 36.683 43.429 37.348 43.351 38 43.268 L 38 36.27 C 37.348 36.354 36.683 36.432 36 36.501" id="XMLID_120_" fill="#DCA815"/><path d=" M 19 36.759 L 19 43.758 C 19.657 43.804 20.323 43.845 21 43.878 L 21 36.878 C 20.323 36.845 19.657 36.805 19 36.759" id="XMLID_119_" fill="#DCA815"/><path d=" M 31 36.878 L 31 43.878 C 31.677 43.845 32.343 43.804 33 43.758 L 33 36.759 C 32.343 36.805 31.677 36.845 31 36.878" id="XMLID_118_" fill="#DCA815"/><path d=" M 26 37 C 25.665 37 25.332 36.997 25 36.994 L 25 43.994 C 25.332 43.997 25.665 44 26 44 C 26.335 44 26.668 43.997 27 43.994 L 27 36.994 C 26.668 36.997 26.335 37 26 37" id="XMLID_117_" fill="#DCA815"/><path d=" M 7 45.074 L 7 52.069 C 7.608 52.293 8.274 52.508 9 52.715 L 9 45.719 C 8.274 45.513 7.608 45.297 7 45.074" id="XMLID_116_" fill="#C49214"/><path d=" M 49 45.719 L 49 52.715 C 49.726 52.509 50.392 52.293 51 52.069 L 51 45.074 C 50.392 45.298 49.726 45.513 49 45.719" id="XMLID_115_" fill="#C49214"/><path d=" M 12 46.445 L 12 53.442 C 12.64 53.575 13.307 53.701 14 53.82 L 14 46.823 C 13.307 46.704 12.64 46.578 12 46.445" id="XMLID_114_" fill="#C49214"/><path d=" M 44 46.823 L 44 53.821 C 44.693 53.701 45.36 53.575 46 53.442 L 46 46.445 C 45.36 46.578 44.693 46.704 44 46.823" id="XMLID_113_" fill="#C49214"/><path d=" M 17 47.27 L 17 54.268 C 17.652 54.352 18.317 54.43 19 54.5 L 19 47.502 C 18.317 47.431 17.652 47.353 17 47.27" id="XMLID_112_" fill="#C49214"/><path d=" M 39 47.501 L 39 54.5 C 39.683 54.429 40.348 54.351 41 54.268 L 41 47.27 C 40.348 47.354 39.683 47.432 39 47.501" id="XMLID_111_" fill="#C49214"/><path d=" M 22 47.759 L 22 54.758 C 22.657 54.804 23.323 54.845 24 54.878 L 24 47.878 C 23.323 47.845 22.657 47.805 22 47.759" id="XMLID_110_" fill="#C49214"/><path d=" M 34 47.878 L 34 54.878 C 34.677 54.845 35.343 54.804 36 54.758 L 36 47.759 C 35.343 47.805 34.677 47.845 34 47.878" id="XMLID_109_" fill="#C49214"/><path d=" M 29 48 C 28.665 48 28.332 47.997 28 47.994 L 28 54.994 C 28.332 54.997 28.665 55 29 55 C 29.335 55 29.668 54.997 30 54.994 L 30 47.994 C 29.668 47.997 29.335 48 29 48" id="XMLID_108_" fill="#C49214"/><path d=" M 51.212 39.372 C 48.372 41.87 38.163 44 26 44 C 16.49 44 8.177 42.697 3.644 40.935 C 3.227 41.313 3 41.713 3 42.13 C 3 45.168 14.641 48 29 48 C 43.36 48 55 45.168 55 42.13 C 55 41.083 53.615 40.147 51.212 39.372" id="XMLID_107_" fill="#FCC62D"/><path d=" M 32 33 C 18.787 33 7.884 30.485 6.226 27.717 C 2.347 28.596 0 29.767 0 31.13 C 0 34.167 11.641 37 26 37 C 40.359 37 52 34.167 52 31.13 C 52 30.996 51.97 30.865 51.925 30.735 C 47.156 32.077 40.002 33 32 33" id="XMLID_106_" fill="#FFD949"/><path d=" M 50.993 16.549 C 47.882 18.969 37.874 21 26 21 C 18.332 21 11.441 20.152 6.682 18.9 C 6.241 19.29 6 19.7 6 20.13 C 6 23.168 17.641 26 32 26 C 46.359 26 58 23.168 58 20.13 C 58 18.678 55.337 17.443 50.993 16.549" id="XMLID_105_" fill="#FCC62D"/></g><g></g><g></g><g></g><g></g><g></g><g></g><g></g><g></g><g></g><g></g><g></g><g></g><g></g><g></g><g></g></svg>