<svg version="1.1" viewBox="0 0 512.002 512.002" xmlns="http://www.w3.org/2000/svg" xmlns:xlink="http://www.w3.org/1999/xlink" id="Layer_1" overflow="hidden"><path d=" M 475.854 222.028 L 475.854 401.982 C 475.854 407.065 471.733 411.186 466.65 411.186 L 56.743 411.186 C 51.66 411.186 47.539 407.065 47.539 401.982 L 47.539 222.028 C 47.539 216.945 51.66 212.824 56.743 212.824 L 466.649 212.824 C 471.734 212.823 475.854 216.945 475.854 222.028 Z" fill="#FF7258"/><path d=" M 475.854 212.823 L 475.854 314.206 L 453.519 320.487 L 431.311 342.119 C 426.517 346.787 420.144 349.311 413.621 349.311 C 411.535 349.311 409.438 349.057 407.375 348.539 L 377.307 340.887 L 347.239 348.539 C 345.165 349.058 343.067 349.311 340.981 349.311 C 334.458 349.311 328.084 346.787 323.291 342.119 L 301.083 320.487 L 271.222 312.097 C 262.717 309.712 256.067 303.073 253.67 294.568 L 245.28 264.753 L 223.625 242.591 C 217.436 236.264 215.005 227.171 217.195 218.608 L 218.67 212.823 L 475.854 212.823 L 475.854 212.823 Z" fill="#F95D48"/><path d=" M 428.315 268.75 L 428.315 448.704 C 428.315 453.787 424.194 457.908 419.111 457.908 L 9.204 457.908 C 4.121 457.908 0 453.787 0 448.704 L 0 268.75 C 0 263.667 4.121 259.546 9.204 259.546 L 419.11 259.546 C 424.194 259.545 428.315 263.665 428.315 268.75 Z" fill="#00ABE0"/><path d=" M 428.315 259.545 L 428.315 344.608 C 424.005 347.685 418.864 349.31 413.621 349.31 C 411.535 349.31 409.438 349.056 407.375 348.538 L 377.307 340.886 L 347.239 348.538 C 345.165 349.057 343.067 349.31 340.981 349.31 C 334.458 349.31 328.084 346.786 323.291 342.118 L 301.083 320.486 L 271.222 312.096 C 262.717 309.711 256.067 303.072 253.67 294.567 L 245.28 264.752 L 240.186 259.542 L 428.313 259.542 L 428.313 259.545 Z" fill="#099DD1"/><path d=" M 379.245 61.993 L 409.347 54.337 C 412.002 53.662 414.818 54.415 416.781 56.327 L 439.014 77.986 C 439.956 78.904 441.113 79.57 442.379 79.926 L 472.276 88.321 C 474.918 89.063 476.982 91.126 477.726 93.767 L 486.132 123.613 C 486.489 124.881 487.158 126.038 488.079 126.981 L 509.759 149.174 C 511.678 151.138 512.434 153.96 511.756 156.622 L 504.093 186.662 C 503.767 187.939 503.767 189.277 504.093 190.554 L 511.756 220.592 C 512.435 223.253 511.678 226.076 509.759 228.04 L 488.08 250.231 C 487.16 251.173 486.49 252.331 486.133 253.599 L 477.727 283.445 C 476.984 286.086 474.918 288.149 472.278 288.891 L 442.38 297.288 C 441.114 297.643 439.957 298.311 439.016 299.228 L 416.781 320.887 C 414.818 322.799 412.003 323.553 409.347 322.877 L 379.245 315.221 C 377.971 314.898 376.637 314.897 375.364 315.221 L 345.26 322.878 C 342.604 323.553 339.789 322.8 337.826 320.888 L 315.593 299.229 C 314.651 298.311 313.494 297.645 312.228 297.289 L 282.33 288.892 C 279.689 288.15 277.624 286.087 276.881 283.446 L 268.474 253.599 C 268.117 252.331 267.448 251.174 266.527 250.231 L 244.848 228.04 C 242.929 226.076 242.172 223.254 242.851 220.592 L 250.513 190.554 C 250.839 189.277 250.839 187.94 250.513 186.663 L 242.851 156.622 C 242.172 153.961 242.929 151.14 244.848 149.174 L 266.528 126.981 C 267.448 126.039 268.117 124.881 268.475 123.614 L 276.882 93.767 C 277.625 91.126 279.691 89.064 282.332 88.321 L 312.229 79.926 C 313.496 79.57 314.652 78.903 315.594 77.985 L 337.826 56.327 C 339.789 54.415 342.604 53.661 345.26 54.337 L 375.364 61.994 C 376.636 62.316 377.971 62.316 379.245 61.993 Z" fill="#FF7258"/><path d=" M 154.829 313.248 L 154.829 401.991 C 154.829 407.074 150.708 411.195 145.625 411.195 L 56.743 411.195 C 51.66 411.195 47.539 407.074 47.539 401.991 L 47.539 313.248 C 47.539 308.165 51.66 304.044 56.743 304.044 L 145.624 304.044 C 150.707 304.043 154.829 308.163 154.829 313.248 Z" fill="#EFEFEF"/><g><path d=" M 154.829 313.248 L 154.829 316.239 L 113.397 357.613 L 101.19 369.809 L 59.747 411.195 L 56.744 411.195 C 51.661 411.195 47.54 407.074 47.54 401.991 L 47.54 399 L 88.983 357.626 L 101.19 345.43 L 142.633 304.044 L 145.624 304.044 C 150.707 304.043 154.829 308.163 154.829 313.248 Z" fill="#E2E2E2"/><path d=" M 154.829 398.988 L 154.829 401.991 C 154.829 407.074 150.708 411.195 145.625 411.195 L 142.634 411.195 L 101.191 369.809 L 88.984 357.625 L 47.541 316.239 L 47.541 313.248 C 47.541 308.165 51.662 304.044 56.745 304.044 L 59.748 304.044 L 101.191 345.43 L 113.398 357.614 L 154.829 398.988 Z" fill="#E2E2E2"/><path d=" M 337.48 369.085 L 190.553 369.085 C 185.786 369.085 181.924 365.223 181.924 360.456 C 181.924 355.689 185.786 351.827 190.553 351.827 L 337.48 351.827 C 342.247 351.827 346.109 355.689 346.109 360.456 C 346.109 365.223 342.247 369.085 337.48 369.085 Z" fill="#E2E2E2"/></g><g><path d=" M 337.48 400.104 L 190.553 400.104 C 185.786 400.104 181.924 396.242 181.924 391.475 C 181.924 386.708 185.786 382.846 190.553 382.846 L 337.48 382.846 C 342.247 382.846 346.109 386.708 346.109 391.475 C 346.109 396.242 342.247 400.104 337.48 400.104 Z" fill="#EFEFEF"/><path d=" M 366.263 152.396 C 366.263 137.803 354.393 125.933 339.8 125.933 C 325.207 125.933 313.337 137.803 313.337 152.396 C 313.337 166.989 325.207 178.859 339.8 178.859 C 354.393 178.859 366.263 166.988 366.263 152.396 Z M 330.596 152.396 C 330.596 147.321 334.725 143.192 339.8 143.192 C 344.875 143.192 349.004 147.321 349.004 152.396 C 349.004 157.471 344.875 161.6 339.8 161.6 C 334.725 161.6 330.596 157.471 330.596 152.396 Z" fill="#EFEFEF"/><path d=" M 408.834 206.472 C 394.241 206.472 382.371 218.342 382.371 232.935 C 382.371 247.528 394.241 259.398 408.834 259.398 C 423.427 259.398 435.297 247.528 435.297 232.935 C 435.297 218.342 423.426 206.472 408.834 206.472 Z M 408.834 242.14 C 403.759 242.14 399.63 238.011 399.63 232.936 C 399.63 227.861 403.759 223.732 408.834 223.732 C 413.909 223.732 418.038 227.861 418.038 232.936 C 418.038 238.01 413.909 242.14 408.834 242.14 Z" fill="#EFEFEF"/><path d=" M 422.432 144.55 C 419.061 141.181 413.598 141.181 410.228 144.55 L 326.202 228.576 C 322.832 231.947 322.832 237.41 326.202 240.78 C 327.888 242.464 330.097 243.307 332.305 243.307 C 334.513 243.307 336.722 242.465 338.408 240.78 L 422.434 156.754 C 425.802 153.383 425.802 147.92 422.432 144.55 Z" fill="#EFEFEF"/></g><g></g><g></g><g></g><g></g><g></g><g></g><g></g><g></g><g></g><g></g><g></g><g></g><g></g><g></g><g></g></svg>