<svg version="1.1" viewBox="0 0 483.8 483.8" xmlns="http://www.w3.org/2000/svg" xmlns:xlink="http://www.w3.org/1999/xlink" id="Capa_1" overflow="hidden"><g><g><g><g><path d=" M 429.8 253.8 L 415.6 253.8 L 415.6 253.8 C 406.2 225 387.9 199.6 363.4 179.8 C 363.4 178.9 363.2 177.9 363 177 C 357.9 159 364.2 142.5 371.6 130.7 C 376.8 122.5 370.1 111.8 360.4 113 C 338.7 115.7 323.8 123.7 313.5 132.6 C 306.4 138.8 301.4 147 299.2 156.1 C 283.7 220.4 225.8 268.3 156.6 268.3 C 123.1 268.3 92.2 257 67.5 238.1 C 59 256.7 54.3 276.9 54.3 298.2 C 54.3 309.7 55.7 320.9 58.3 331.7 L 58.3 331.7 C 58.3 331.7 58.3 331.9 58.4 332.2 C 61.1 343.4 65.2 354.2 70.5 364.4 C 77.4 379.4 87.6 396.9 101.4 411.2 C 121.5 431.9 124.9 457.5 125.4 468.5 L 125.4 473.3 C 125.4 473.5 125.4 473.7 125.4 473.9 C 125.4 474 125.4 474 125.4 474 L 125.4 474 C 125.8 479.4 130.3 483.8 135.8 483.8 L 199.6 483.8 C 205.4 483.8 210.1 479.1 210.1 473.3 L 210.1 457.5 C 219.3 458.7 228.8 459.4 238.4 459.4 C 245.9 459.4 253.3 459 260.6 458.2 L 260.6 473.2 C 260.6 479 265.3 483.7 271.1 483.7 L 334.9 483.7 C 340.7 483.7 345.4 479 345.4 473.2 L 345.4 457.4 C 345.5 452.2 347.3 431.3 367 413.5 C 367.7 412.9 368.4 412.3 369.1 411.6 C 369.3 411.4 369.5 411.3 369.7 411.1 L 369.7 411.1 C 391.6 391.6 407.9 367.2 416.3 340 L 429.7 340 C 440.4 340 449 331.3 449 320.7 L 449 273 C 449.1 262.5 440.5 253.8 429.8 253.8 Z M 350.1 257.2 C 341.4 257.2 334.3 250.1 334.3 241.4 C 334.3 232.7 341.4 225.6 350.1 225.6 C 358.8 225.6 365.9 232.7 365.9 241.4 C 365.9 250.1 358.8 257.2 350.1 257.2 Z"/></g></g><g><g><path d=" M 156.6 243.6 C 223.9 243.6 278.4 189.1 278.4 121.8 C 278.4 54.5 223.9 0 156.6 0 C 89.3 0 34.8 54.5 34.8 121.8 C 34.9 189 89.4 243.6 156.6 243.6 Z M 85.1 128.2 C 85.1 125.9 87 124 89.3 124 L 100.9 124 C 100.9 121.4 100.9 118.9 100.9 116.3 L 89.3 116.3 C 87 116.3 85.1 114.4 85.1 112.1 L 85.1 102.7 C 85.1 100.4 87 98.5 89.3 98.5 L 104 98.5 L 104.5 97 C 108.5 84.4 115.3 73.7 125.8 65.5 C 134.1 59 143.8 55.5 154.1 53.8 C 168.8 51.4 183 53.5 196.8 58.8 C 197.7 59.1 198.6 59.6 199.4 60 C 202.7 62 203.6 64.4 202.1 67.9 C 200.6 71.6 199 75.4 197.3 79 C 195.8 82.2 193.8 83.2 190.5 82.4 C 185.8 81.3 181.3 79.9 176.6 79 C 166.8 77 157 76.9 147.4 80.7 C 139.2 84 134.2 90.2 130.7 98 C 130.7 98.1 130.7 98.2 130.7 98.3 L 159.3 98.3 C 161.6 98.3 163.5 100.2 163.5 102.5 L 163.5 111.9 C 163.5 114.2 161.6 116.1 159.3 116.1 L 126.6 116.1 C 126.6 118.6 126.6 121.1 126.6 123.8 L 159.3 123.8 C 161.6 123.8 163.5 125.7 163.5 128 L 163.5 137.4 C 163.5 139.7 161.6 141.6 159.3 141.6 L 129.4 141.6 C 133 151.9 138.9 159.9 149.9 163.3 C 158.7 166.1 167.6 165.9 176.5 164.1 C 181.1 163.1 185.6 161.7 190.2 160.7 C 193.8 159.9 195.8 160.9 197.3 164.2 C 199 167.9 200.6 171.7 202.1 175.5 C 203.5 178.9 202.6 181.7 199 183.3 C 195.3 185 191.5 186.3 187.6 187.4 C 172.8 191.5 157.9 191.6 143.2 186.9 C 125.4 181.1 113.5 169 106.5 151.9 C 105.1 148.6 104.2 145.1 103.2 141.7 L 89.2 141.7 C 86.9 141.7 85 139.8 85 137.5 L 85 128.2 L 85.1 128.2 Z"/></g></g></g></g><g></g><g></g><g></g><g></g><g></g><g></g><g></g><g></g><g></g><g></g><g></g><g></g><g></g><g></g><g></g></svg>