<svg version="1.1" viewBox="0 0 470 470" xmlns="http://www.w3.org/2000/svg" xmlns:xlink="http://www.w3.org/1999/xlink" id="Layer_1" overflow="hidden"><g><path d=" M 162.5 102.5 C 162.5 62.523 195.023 30 235 30 C 274.977 30 307.5 62.523 307.5 102.5 L 307.5 160 L 337.5 160 L 337.5 102.5 C 337.5 45.981 291.519 0 235 0 C 178.481 0 132.5 45.981 132.5 102.5 L 132.5 160 L 162.5 160 L 162.5 102.5 Z"/><path d=" M 77.5 190 L 77.5 470 L 392.5 470 L 392.5 190 L 77.5 190 Z M 250 338.058 L 250 391.615 L 220 391.615 L 220 338.058 C 208.176 332.44 200 320.392 200 306.431 C 200 287.101 215.67 271.431 235 271.431 C 254.33 271.431 270 287.101 270 306.431 C 270 320.392 261.824 332.441 250 338.058 Z"/></g><g></g><g></g><g></g><g></g><g></g><g></g><g></g><g></g><g></g><g></g><g></g><g></g><g></g><g></g><g></g></svg>