<svg version="1.1" viewBox="0 0 354.796 354.796" xmlns="http://www.w3.org/2000/svg" xmlns:xlink="http://www.w3.org/1999/xlink" id="Capa_1" overflow="hidden"><g><g id="Layer_5_58_"><g><g><path d=" M 265.442 109.092 C 254.84 104.842 251.777 102.272 251.777 97.631 C 251.777 93.917 254.59 89.578 262.521 89.578 C 269.536 89.578 274.916 92.344 274.964 92.368 C 275.53 92.67 276.165 92.831 276.794 92.831 C 278.329 92.831 279.687 91.902 280.25 90.464 L 282.177 85.538 C 282.848 83.743 281.83 82.179 280.532 81.618 C 276.213 79.738 267.772 78.283 267.686 78.268 C 267.55 78.244 267.077 78.143 267.077 77.59 L 267.05 70.444 C 267.05 68.292 265.253 66.54 263.047 66.54 L 259.59 66.54 C 257.386 66.54 255.59 68.291 255.59 70.445 L 255.599 77.958 C 255.599 78.534 254.975 78.784 254.747 78.837 C 244.092 81.375 237.433 89.18 237.433 99.025 C 237.433 111.298 247.578 116.844 258.532 121.007 C 267.289 124.445 270.861 127.931 270.861 133.044 C 270.861 138.608 265.802 142.494 258.554 142.494 C 252.365 142.494 243.989 138.571 243.906 138.531 C 243.37 138.277 242.802 138.149 242.218 138.149 C 240.624 138.149 239.236 139.113 238.681 140.606 L 236.841 145.588 C 236.187 147.448 237.194 148.958 238.483 149.63 C 243.627 152.309 253.581 153.879 254.024 153.948 C 254.143 153.965 254.749 154.178 254.749 154.732 L 254.749 162.212 C 254.749 164.364 256.546 166.116 258.753 166.116 L 262.325 166.116 C 264.533 166.116 266.33 164.365 266.33 162.212 L 266.33 154.34 C 266.33 153.604 266.873 153.539 266.985 153.512 C 278.336 150.962 285.328 142.657 285.328 132.229 C 285.325 121.518 279.377 114.597 265.442 109.092 Z"/><path d=" M 260.979 22.509 C 209.163 22.509 167.161 64.514 167.161 116.327 C 167.161 168.141 209.163 210.147 260.979 210.147 C 312.793 210.147 354.796 168.141 354.796 116.327 C 354.796 64.514 312.793 22.509 260.979 22.509 Z M 260.979 188.404 C 221.171 188.404 188.903 156.133 188.903 116.328 C 188.903 76.523 221.171 44.253 260.979 44.253 C 300.785 44.253 333.052 76.523 333.052 116.328 C 333.052 156.133 300.785 188.404 260.979 188.404 Z"/></g><g><path d=" M 335.733 255.61 C 315.783 266.621 288.344 276.802 260.98 281.094 C 236.634 284.912 190.832 275.704 190.832 264.829 C 190.832 260.708 231.002 274.983 255.301 268.5 C 273.934 263.529 271.289 246.099 261.154 243.8 C 251.078 241.513 192.046 219.887 166.831 219.141 C 154.953 218.79 125.628 223.272 111.438 225.583 C 106.577 226.374 103.529 226.287 103.225 230.939 C 101.813 252.559 99.03 296.771 97.513 319.865 C 97.481 320.353 98.159 326.915 103.574 322.297 C 109.501 317.243 117.814 311.641 125.503 313.385 C 137.566 316.122 241.927 335.241 256.322 331.895 C 276.915 327.108 335.21 292.561 346.387 281.823 C 363.711 265.176 350.244 247.601 335.733 255.61 Z"/><path d=" M 74.426 224.74 L 19.754 222.046 C 15.533 221.838 11.222 225.019 10.173 229.112 L 0.232 319.367 C -0.816 323.461 1.782 326.945 6.005 327.108 L 66.595 327.102 C 70.819 327.265 74.537 323.951 74.861 319.737 L 81.515 232.779 C 81.837 228.566 78.647 224.948 74.426 224.74 Z M 42.24 315.145 C 33.891 315.145 27.124 308.377 27.124 300.029 C 27.124 291.68 33.892 284.913 42.24 284.913 C 50.588 284.913 57.356 291.681 57.356 300.029 C 57.356 308.378 50.589 315.145 42.24 315.145 Z"/></g></g></g></g><g></g><g></g><g></g><g></g><g></g><g></g><g></g><g></g><g></g><g></g><g></g><g></g><g></g><g></g><g></g></svg>